<?xml version="1.0" encoding="utf-8"?>
<!-- Generator: Adobe Illustrator 22.0.1, SVG Export Plug-In . SVG Version: 6.00 Build 0)  -->
<svg version="1.1" xmlns="http://www.w3.org/2000/svg" xmlns:xlink="http://www.w3.org/1999/xlink" x="0px" y="0px"
	 viewBox="0 0 734.4 578.6" enable-background="new 0 0 734.4 578.6" xml:space="preserve">
<metadata><?xpacket begin="﻿" id="W5M0MpCehiHzreSzNTczkc9d"?>
<x:xmpmeta xmlns:x="adobe:ns:meta/" x:xmptk="Adobe XMP Core 5.6-c143 79.161210, 2017/08/11-10:28:36        ">
   <rdf:RDF xmlns:rdf="http://www.w3.org/1999/02/22-rdf-syntax-ns#">
      <rdf:Description rdf:about=""
            xmlns:dc="http://purl.org/dc/elements/1.1/"
            xmlns:xmp="http://ns.adobe.com/xap/1.0/"
            xmlns:xmpGImg="http://ns.adobe.com/xap/1.0/g/img/"
            xmlns:xmpMM="http://ns.adobe.com/xap/1.0/mm/"
            xmlns:stRef="http://ns.adobe.com/xap/1.0/sType/ResourceRef#"
            xmlns:stEvt="http://ns.adobe.com/xap/1.0/sType/ResourceEvent#"
            xmlns:illustrator="http://ns.adobe.com/illustrator/1.0/"
            xmlns:xmpTPg="http://ns.adobe.com/xap/1.0/t/pg/"
            xmlns:stDim="http://ns.adobe.com/xap/1.0/sType/Dimensions#"
            xmlns:xmpG="http://ns.adobe.com/xap/1.0/g/"
            xmlns:pdf="http://ns.adobe.com/pdf/1.3/">
         <dc:format>image/svg+xml</dc:format>
         <dc:title>
            <rdf:Alt>
               <rdf:li xml:lang="x-default">Печать</rdf:li>
            </rdf:Alt>
         </dc:title>
         <xmp:MetadataDate>2019-11-19T14:11:43+02:00</xmp:MetadataDate>
         <xmp:ModifyDate>2019-11-19T14:11:43+02:00</xmp:ModifyDate>
         <xmp:CreateDate>2019-11-19T14:11:42+02:00</xmp:CreateDate>
         <xmp:CreatorTool>Adobe Illustrator CC 22.0 (Windows)</xmp:CreatorTool>
         <xmp:Thumbnails>
            <rdf:Alt>
               <rdf:li rdf:parseType="Resource">
                  <xmpGImg:width>256</xmpGImg:width>
                  <xmpGImg:height>228</xmpGImg:height>
                  <xmpGImg:format>JPEG</xmpGImg:format>
                  <xmpGImg:image>/9j/4AAQSkZJRgABAgEASABIAAD/7QAsUGhvdG9zaG9wIDMuMAA4QklNA+0AAAAAABAASAAAAAEA&#xA;AQBIAAAAAQAB/+4ADkFkb2JlAGTAAAAAAf/bAIQABgQEBAUEBgUFBgkGBQYJCwgGBggLDAoKCwoK&#xA;DBAMDAwMDAwQDA4PEA8ODBMTFBQTExwbGxscHx8fHx8fHx8fHwEHBwcNDA0YEBAYGhURFRofHx8f&#xA;Hx8fHx8fHx8fHx8fHx8fHx8fHx8fHx8fHx8fHx8fHx8fHx8fHx8fHx8fHx8f/8AAEQgA5AEAAwER&#xA;AAIRAQMRAf/EAaIAAAAHAQEBAQEAAAAAAAAAAAQFAwIGAQAHCAkKCwEAAgIDAQEBAQEAAAAAAAAA&#xA;AQACAwQFBgcICQoLEAACAQMDAgQCBgcDBAIGAnMBAgMRBAAFIRIxQVEGE2EicYEUMpGhBxWxQiPB&#xA;UtHhMxZi8CRygvElQzRTkqKyY3PCNUQnk6OzNhdUZHTD0uIIJoMJChgZhJRFRqS0VtNVKBry4/PE&#xA;1OT0ZXWFlaW1xdXl9WZ2hpamtsbW5vY3R1dnd4eXp7fH1+f3OEhYaHiImKi4yNjo+Ck5SVlpeYmZ&#xA;qbnJ2en5KjpKWmp6ipqqusra6voRAAICAQIDBQUEBQYECAMDbQEAAhEDBCESMUEFURNhIgZxgZEy&#xA;obHwFMHR4SNCFVJicvEzJDRDghaSUyWiY7LCB3PSNeJEgxdUkwgJChgZJjZFGidkdFU38qOzwygp&#xA;0+PzhJSktMTU5PRldYWVpbXF1eX1RlZmdoaWprbG1ub2R1dnd4eXp7fH1+f3OEhYaHiImKi4yNjo&#xA;+DlJWWl5iZmpucnZ6fkqOkpaanqKmqq6ytrq+v/aAAwDAQACEQMRAD8A9U4q7FXYq7FWM+fvPVh5&#xA;R0gXMq/WL+4Jj0+xBo0sgG5PgiVqzfxOUZ84xxsuRptPLLKg+ernzL5nu9d/T8uqSLrsZ5QyxsRH&#xA;EtaiJIvs+l4qR8XfNBLWTM+J6SOhxiHBT6D/AC787QebdBF2VWHUrZvR1K1H7EoFeS1qeDjdT9Hb&#xA;N/p84yRsPN6nTnFOiyjL3HdirsVdirsVdirsVdirsVdirsVdirsVdirsVdirsVdirsVdirsVdirs&#xA;VdirsVdirsVdiqyeeG3gknncRwwq0ksjbBVUVYn5DATSQLfLfmrzNeeafMM+slGb12FtpFof2IeX&#xA;GJQOzSE8m+ec3q8/iz8nqdJgGHH5pzqfkWO28vpLaD1NXtQZp5R1nqAZI/lQfAO1Pc5hDLZo8m7c&#xA;b9VH8sPMv6E852M/Omn6vxsbzwrIf3Enh8Mm1fAnNj2fm4J8J6uJ2lhE8fEOYfSmdC807FXYq7FX&#xA;Yq7FXYq7FXYq7FXYq7FXYq7FXYq7FXYq7FXYq7FXYq7FXYq7FXYq7FXYq7FWAfndrMlh5IksoWKz&#xA;6vMlkCvURtV5j8jGhU/PMPXZeDGfNzez8XHlHk8c8r2hXX4ZZE/d2UXqqh7NJWND/wACHpnLnJ6T&#xA;Xe9PlFEBms99K0hdXKIvQVoKDxyi2t55f6U5k1VbWRUFq5ng4noGAmXjTwaoHyzI/McMo31/sbYY&#xA;+OEh3PqPQtR/SWiafqPT67bQ3G3/ABbGH/42zsYSsAvGTjwyI7kbkmLsVdirsVdirsVdirsVdirs&#xA;VdirsVdirsVdirsVdirsVdirsVdirsVdirsVdirsVdirx/8APbU4rXWPLaSB2WNLyURIOTPIwijQ&#xA;KO53bNJ23EyxiId52IRGZkXnttZa1cTz3Ms506O548oIaNNxQUUGQii9SfhGc3+YhCIjEcVdej0J&#xA;05nLilt5Ij/DmkseU8bXMneSeR5GP/BHKTrMnQ17m4aXGOjm8taE3/Hmi+68lPh1UjANXl/nJ/LY&#xA;+5NNK1LzPoaImia1cwQRALHZXJ+tWwVeiKklWQf6jDM/B21mhz3Dg5+yMM+lFnGgfnNGjpbebLMa&#xA;ezHiNTtuUlmSenMGskVfeo9xnQ6TtfHl2OxdBq+yMmPcbh6XBcQXEKT28izQSqGjljYMjKdwVYVB&#xA;GbUG3UkUvwodirsVdirsVdirsVdirsVdirsVdirsVdirsVdirsVdirsVdirsVdirsVdiqU+afMlh&#xA;5b0O51a9q0cIAjhX7csrbJGn+Uzf1yvLkEImRbMWI5JCIeB6hqd5e6i2t64xn1e8PC3t41MnpJuV&#xA;t4EFTRQdz3O5zidXqsmqmQPpD2ul00NNAXzXW976szwSQTW06AOYriMxsVbYMteoqKbZg5cEobnl&#xA;5OZizxnyROUtzsVdirTKrKVYAqRQg7gg4qqaHrHmXyyZE8vXUSWU9een3atLBG539WFVZSjewPE9&#xA;83Oj7ZniFH1Oo1fZOPKbGyB1zzr+YjFmvvME0UJ+ybURWygVrSqLz+85mR7Wnk5Fxz2Vix8wkkXm&#xA;fzRN/c+YNZm/4xXd2/8AxBjk/wAzm7z80flsHcPkrL5o87Wgab9Na3GqirPM9y6AU6n1lZRhjq8v&#xA;f9qJaXAen2Mu8jfmP+YN35p0nSZtRTUbe9m4ypNBGrrCil5WV4hGahFNK1zM0msyTmIlwtbocWOB&#xA;kHvObl0TsVdirsVdirsVdirsVdirsVdirsVdirsVdirsVUrq6tbS3e5upkt7eIcpZpWCIo8WZiAM&#xA;BNc0gE7BgGv/AJx2NvZ3dz5d02fXobEFru/T9xZRgGh/fuDzavRUG/Y5jT1IA9Iuvk5UNISQJHhv&#xA;5vRMynEdirxL8yddGvebxYwuH0vy/wDCQN1e/cfGff0UovsxOcx27rP8mPi9P2HpKHiFjd5YC4eK&#xA;VZpbeaHkElhdo2AenIVQqd6DOfw5zjuurv8ALhE+brSwS3d5WkknnkADzSu0jkCpA5OWPfHNnOTn&#xA;yXFhjDkisobXYqhp75IpjCsM08iJ6kogjaTghJAZuI70OX49PKYsNOTPGBoqsE8U8STQuHicVVh0&#xA;IymUTE0ebbGQIsNzJzhdObR8lI5p9oVHVdjv9GMTRWQsMSsbpLbUOcJV1DfvJ9Uj/e0O59NlHP7x&#xA;m8iCY71/mumyVe1/F6Jo3mKzvI3eCUzwRt6dQpFGABoCwWuxzHlEx5oBSjz9rSSQRaPbtVrjjNdk&#xA;fswg1VT7uw+4HLsQr1JAs0n/AOQ/l9rnVdQ8yTL+4tVNhYk9GkYh53H+qAq19zm87Mw0DIuo7Wz2&#xA;RAPa827pXYq7FXYq7FXYq7FXYq7FXYq7FXYq7FXYqg9W1rSdHtGvNUvIrK2Wv72ZwgJAJ4rX7Tbb&#xA;AbnIykIiyyjAyNAWxD/HfmTzATH5K0YyWhNBruqh7e0pX7UUW00wI7ilD1ynxpS+gfEuR4EYfWfg&#xA;Oapa/ljDfTx33nHUZvMl7GeUcE37qxib/iu1T4D4HlWvhiMF7zPF9yDqa2gOEfb80N+cUkFv+X93&#xA;pdpGieu1tBHAi0UBriMBQq9MdSKxldKbygnz+56BmQ4zzLzx+Z00iT6R5UrLNyMF5rgBNvbn9pIW&#xA;6STAeGy5qu0O0o4Y7bl23Z/Zpyy9WwedwxWmm2PHlwhhBZ5HNST1ZmPck5xcpSyzvnIvYxjHHGuQ&#xA;CvfR6rp1rFeahYm0tpgXjSWaFbr0wKmU2vP1uKg1baoG5GbOXYuYQ4vsddHtjCZ8Ky2u4LlXaBua&#xA;o7RsaEDkhoaV65qZwMebs4zEuStkWTsVQVxa3kd2t/p9w1veKOJYUKuv8rqdmH+YzLwajhHCeTjZ&#xA;sHHv1a0m3uYY52uFjjeeZphFFXgvICoUN0qwLU98jqskZysdydPjMI0e9HZjOQx/XrjXqiG2WOKO&#xA;V/TiUOxmmJ7LQfAPE12HfNhpIYid7J+wOFqpzA2oD7SmMuqJo2mRWEKRzajHGAYYQRFGT+05qSBv&#xA;33bMnh4pWeTgRB5BJdI0fV9f1mLSrEmfVL9uc9ywqsUYoHmen2UQbAfIDMzBhOWQA5Iz5o4YWeb6&#xA;f8u6DYaBotppFgvG2tIwik/aZurO3+U7Esc6aEBEUHlMkzORJ6pjk2DsVdirsVdirsVdirsVdirs&#xA;VdirsVQWr61pOj2bXuqXcVnap1lmYKCfAV3Y+w3yMpCIssoQMjQFvJ/NP54ancObXynps4t22OsT&#xA;wljSh+KGBzGD4gyN/sc1ebtXGDQI/Hk7bB2TMi5A+79qUeUr9dU866fb3OiT67qk59W41TWrhJTB&#xA;bK1ZHitY1aKEA/YBJ+LYZHS6mGaXp9XmWWq088UPUeHyD3zpm4dKhr6+S2T+aVvsr/E4QEEvOvOh&#xA;kvdT8s6fx9aS81m2kmQ0PKG25TS19gFyjUfwj+k5Gm24j3RKY/mzq97aW2j6aqXS6brN4LTUZ7EK&#xA;1wUYfDbx8mTiZzUFq7KD8shqJEUOhZ6WAJJ2sDr+OjL7fQ9It9JXSILSOPTUT0ltVWiBf6969a79&#xA;ctlijKPCR6WmOaQlxg+p5r5s/L46LDa6xbl9RsNPu4LrULPhWQ28Uyu/ED7fFRUjvTNBHskaeYyA&#xA;8URz8nf/AMqnUQOMjhkeT5t8y6t568x+ZYdL1HUJNRhsby4k06UcWQC4mMrMjgV+OooGPwii7BaD&#xA;c59VCOMysOpwaScsgjResaVYrY6fDag1Ma/G3ix3Y/STnAZsnHMye6xQ4IgIvKmxT9R2uY7S3hlu&#xA;ryUExWtujSysB1bivRR3J2zI0+lyZjUBbRn1MMQuRpdJ68F21neW01leIoc29whjcoejrXZl7VU5&#xA;LU6PJhPrDHT6vHmFwK7MVyXYqlE2lTNqEl7cX7opHpxRxAIVSteIf4m37laHMzHqKjwxju4mTT8U&#xA;rkW7HS7nWZ/0F5Ys/XuSwa4l3EUQP+7LiTf8fiOZ2j0eXLPik4ur1eLDCg918heQdN8o6cY4j9Z1&#xA;O4o1/qDCjSMP2VH7Ma/srnW4NPHHGg8jqdTLLKyyjL3HdirsVdirsVdirsVdirsVdirsVWTzwW8L&#xA;zzyLDDGC0kshCqqjqWY7AYCaSBbzHzH+cold7PyhbreuCVk1e4DLaIRsfTXZ5j9y/MZqdZ2vjxbD&#xA;eTt9H2RPJvLYMBuILq/vRqGtXcmqagK8Zpz8Ede0UQ+CMfIZy2q7Ry5juaD02m0OPENgrsyqpZjR&#xA;VFSfYZggOY9G/Jry+tvoMnmK4X/T9dPqqT1jtUJEEY+a/GfGvtnfdm6YYsQ7y8N2nqTlynuDNr7U&#xA;ktwUSjTeHYfPNiA60lIpJHkcu5LMepOSYsfsU/SX5rWEYY+loGnzXbFR8Pr3hECox8fT5MMxZb5Q&#xA;P5o+9y4enCT/ADj9zzPzl+fz6h50sbvy7pSX2m6C1wLaW6kKJcTSD0vXVEBIVVDenU13rtlksdyB&#xA;7muOThiR3sg8sf8AOUNjJeLZ+bdIbSg+yX1q7XEXI9FePisi18Ry+jJSNC2MY2aDJdX/ADpSaJ4d&#xA;B0W4uZHBX19QAtrcA7V4VaRx7UGajUds4Yih6nb4Oxs0jZ9Lziy0sx3L3t0yzX0lfiUcUjB/ZjXe&#xA;g9zuc5HLnscMRUXq8eKjcjckwzHb3YqletecLzyl5QutZ02GOfUJNetrfVo5BUNpyW/qxQNT7Mcz&#xA;qwJ77jO17EjEYBXN47tsyOajyedeTPMGoa35/utQjt47K0vZZrqSxtgRbxPIN+AYtx5d/E/RR7c4&#xA;fA35p7E4vG25U9ZzinsHYq15X8vRebvOC6TczSw6dBbSXVz6BCM6q6RqnMg0DFt6ds6LsjRxmfU6&#xA;PtbVyxx9L3nRdB0fQ7FbDSbSOztU3EcYpU9OTMasze7EnOqhARFB5Oc5SNk2j8kwdirsVdirsVdi&#xA;rsVdirsVdirsVYz5y/MDQ/K8Sx3Ba71SYVtdLgo00nueyJ4s30V6Zj6jUwxC5FydPpZ5TUQ8g13V&#xA;/MHmmb1fMEwWyDcoNGgJFulOnqnrM48W28M5PXdsTybR2i9XouyYYt5byWKqqoVQFVRQKNgAM0pN&#xA;u2AbxStdFdGRt1YFWHsdsING0EWirLz1550LSINHsr21ltYEEVrJPAzTxxKKKvJZFU8RtUr2zo9P&#xA;21PhquToM3YsDK75pBqWq+ctcuINPk1md7jUJVgiihpbxDluzOI6MyqoJNScyMWty558PINWXQ4d&#xA;PAyqy9l0XSbTRdIttNtifq9onEO5qx7szE+LEnOihARjQeZyTM5Enqp/lNC15baz5pfrr1631Vq7&#xA;Gzs6wQbdjUPXMfBvcu8/YHJ1HpqH80faXyf588n+YPIfmSfRriUxRx1exuW/u7i2Zm9KTkK8W+Eh&#xA;lPcZkW0VtaX+X9A8y+atQ/RWmo2pXk9AywrySJK7ySPQBQoHc/LIzlQJ5phEEgcnvdxYXlkwhuoZ&#xA;IZF2pKpVjT5gZ5vlxSgakDEvomPJGYuJBDre1ubmQRW0LzSHokalm+4VwQxymaiCT5JnkjAXIgBl&#xA;Ol/lnr12A90UsYz2f45P+AX+JGbfT9hZp7yqA+35Oo1HbmGG0bmfsZJa/lXokYH1i5nnfvQqi/dQ&#xA;n8c2uP2fxD6jI/Y6vJ2/lP0iI+1fqf5SeSdQgeJ7aSFpF9OWWOVyZI68uEiSepG68t6Mh33zZ4NB&#xA;ixD0WPiXX5u0MuU+upfAKGjfkr+XmkW7xWmnsJHJL3Hqush/5FlEA9guHLoceQescXxRi1+XH9BE&#xA;fgEu138p5Iomn0K6d3UV+p3JBDeySUFPav35qNV2FEi8fPudtpe3TdZBt3h51dTmOORHUxzqTG8T&#xA;bMrA0YEe2c2MBE6PR6TxAY2OrKPyPiVvNOtTH7Udnbxrt2eSRj/xHOq7GGxeY7cO8Xs+bx0DsVdi&#xA;rsVdirsVdirsVdirsVdirzXz7+an1SabRPLLJPqifDeag3xW9pXqPCSX/J6Dv3GazXdpRwihvJ2m&#xA;g7NlmNnaLzazhT1prp5JLq8uDyur+clpJW92PYeHTOO1WeeSVzPwev0+CGMVEIzMVyHYq7FWmPFS&#xA;aE0FaDrhAtCVTJcSM0roVHvsAPpzNiYjYNBBO6ja3tzpmsafrFvD9YewkZnt68S6SIY34k7cuLbZ&#xA;sdDqBinZcDX6Y5cfCGWap+Yd55j9Hy3oOmXEF5rJNp9Zu+CemrikjqkbSEhUqSdqZvjr45fRDmXn&#xA;h2dLF68nIPbNI0y10rS7TTbUcbayhSCIHrxjUKCadzTfM+MaFB105GRJPVjPnrynqV/d2mvaKsMu&#xA;r2EckL2V1X0Lu3f4vSehG6uA6V+GvXbKsuMkiUeYbsOQAGMvpP2JB5J12DTZ7zy1qNjJoLTX31vT&#xA;Yrs/UlkSWRZbiKGWPnHJ6cxbiob40IHjlePJvwnbfq25cVgSjvtvT0uKOVoit1wkfkx+FSF48jw2&#xA;YtuFpX3zKq+bh3XJUSNEFEUKPACmIAHJSSebfTChhnm38xbPT4zaaA8es6+jqx0u3V7hjErD1ebQ&#xA;mkJ49Gf7jlGTMBtHeTk4tOTvLaPeyywvIr2xt7yIMsVzEk0YcUYLIoYVHY0OXA2LceQo0r4UOxV8&#xA;8+eVul826oLpUSb1iSIwQpUgFGoa/aWhPvnHa6/GlfO3tdAR4Ma5Uyb8iYXbWPMdz0jSOzgB7Fv3&#xA;rnf2BH35uOxo+gl03bcvWA9gzcujdirsVdirsVdirsVdirsVdiryH8zPzOupbqfy35amMfpEx6rq&#xA;sZ3Q0o0EB/n/AJm/Z7b5qdfrxAcMebuOzuzuP1S5PPtO09FjWGMcLePt4n+p7nOWzZqN9S9Vjx7U&#xA;OSbqoUAAUA6DMAm3JbxV2KuxVpmCgkmgHU4gWqV3VyZmoNox0Hj75m4sfCPNx5StQJAFTsB1OWsX&#xA;o35I+V2mkn833aUWRWtdHVv99A/vZqf5bDivsD450/Zel4I8R5l5btbVccuEcg9dzaundiqF1LS9&#xA;N1S0ez1G1ivLWT7UMyB1J8aN3HY4JRBFFlGRibDzfzH+X/mbQ5BfeTtT1H9GJvcaDFdEsijvaeuJ&#xA;Y/cow37HtmLPDKO8Sa7v1OZDPGW0wL76+9R0O8utaR0h846p68e11ZMtrBdQkGhV42g5qR0r0yUB&#xA;x8pH7GGSXBzgPtr704XyP5ZuttavtW1hDuYr+8kaL/kXCYk/4XJ/lgeZJ+LX+aI5AR9wZXpFr5a0&#xA;q2+raVBb2MHeOFBECfE0AqfnlsYCPINUshluTaKk1SyQfb5nwUVyVMLQp1lnkVEURoSAztuQPHGk&#xA;Wi01G3d5KMBHGAS52qT4Y0m3gvnq/vNd8830eiadcai6KomW3QsyCNREGYU2q4pv885jVYTnzSMO&#xA;mz1ekzDBhiJ9d/0hm/5RMmgJceWNagbTvM1zM980cpDJcxsoANvItVb01Xiyg1FCfGm50cRjjwHY&#xA;uk10jll4g3j9z03M1wHYqoXl/Y2MBuL24itYF+1LM6xoPmzEDASBzSIk7Bheq/nT5FsmaO1uJdWn&#xA;XrHYRNKP+RjcIv8AhsxcmtxQ5ly8Wgyz5BjF9+eusykrpmgJCv7M17cVJ+ccSmn/AAeYM+2IDkHY&#xA;Y+xZHmUpm/Nv8x568Dp1tXp6VvK5G/8AxZI2Y0u2pdzkx7Eh3lT/AOVnfmUtG+vWzU7NZ0B+kPkB&#xA;21LuDM9iQ7yj9P8Azs84Wzj9JaZZ6hCOv1VpLaWnj+8MqH8MyMfbI/iDj5OxP5peh+UfzK8seZ3+&#xA;rWsrWmpgVfTboCOag6lNysg2/ZJ96ZtcOphkHpLqM+kniPqDG/zb/MCaxB8saJKU1W5TlfXadbWB&#xA;x0HhLIPs9wN/A5ja/WDFGh9TldnaI5ZWfpDyvT7CNVSCFeESdf8APxOcnmy9Tzeux4xyHJNy0MEY&#xA;BIVR0GYABkXI2CyKSSY8gOEQ6eLf2ZKURHbqgG1fK2bsVWSSpGvJzQYYxJOyCaS25unmNB8KDov9&#xA;czceIR97RKVqGWMUw8reVrrzfro0mEtHptvxk1i7X9mM9IUP88lKewqc2fZ+jOSVnkHV9o60Yo0P&#xA;qL6OtbW3tLaK1to1ht4EWOGJBRVRBRVA8ABnUAVs8mSSbKrhQ7FXYq7FUh8xeR/Levuk9/a8b6L+&#xA;51C3ZoLlPDjLGVbbwNR7ZXPFGXPm2wzSjsOXcxLX9B83+V9HvdVs9eTU7CwheZrXUrcNNwjFaCeB&#xA;ouTHxZcrlxwBINgd7bDw8hAMaJ7kPbaj+YbwRyNpmmv6iK4K3UyU5AGhVoWNcmJZe4fNrMMV85fL&#xA;9q6n5kzihbSbJSBVlFxcOPoPor+vH96f5o+aP3I/nH5BDWms/mBHZrZzaELjVULLJftPDFZn4jxk&#xA;AUtJSlPh41wCeSq4d/sZSx4rsS9Pd1RFte/mPfCOxi0S1s7xhxl1Ga5V7dSB8UiQxhpCP5QxHvjx&#xA;5SKqvO14MQN8RI7qa1zQ9S/LnyPLqPl+7WXUzdwza5qNzEJGnRz6Z+GvwojOCFB2Fd+pzHnA4Mdw&#xA;5/e5UMg1GWp8unkxPX/MvnHzCllHqU9pa/UZhcQXWnxSR3IkUEArJJJJx678RvnPZu3ZSG0d3fYO&#xA;xIwO5sFUi81/mFAFWLzLK0a/sz21tKTtTdigb8chHt7MObOXYeEqc/mHz3dpwu/M92V7/Vo4LY/8&#xA;FFGDkZ9uZjy/H3Modi4QlEui2dzP9Yv2l1C57z3ksk7n6XJzBya/NPnJzceixQ5BEpaWqAKsShR0&#xA;FNsxjlkerkCAHRUEaDooHyGRMiml2BLsVU5IIpB8ag+/f78lGZHJBiClWoaVukqMyPEweG4jPGWJ&#xA;wahlYbg1zO0+qIO2xcXNgEhR5JdZ3VzJfXg1CRptTmkM89y5qZg52f6OlO2ZeomZnj73H08BAcHc&#xA;nAu1ij9OEb/tOe5+WYHhcRuTmcdDZq3he4k5SElR9onv7Y5JiAoLEWUyAAFBsB0GYbe07ogqzBR7&#xA;4REnkgmkJNqKjaIcj/MemXwwHq1nJ3IKSR5G5OanMmMQOTWTa3ChX0bR9X8x6suj6KoM+xvLxhWK&#xA;1jP7bnux/ZXvmdo9HLLLycHWa2OGPm+hPKflXS/LGjRaXp6ngvxzzt/eTSt9qWQ92b8BtnVYsQhG&#xA;g8jmyyyS4inGWNTsVdirsVdirsVY/wDmDbvceRfMESfaOn3JUeJWJmp9NMqzC4H3NuA1kj70o0Of&#xA;61pGnzr8Xr28LqR35oD/ABy2BuILVkFSI80aQQaHYjqMmwaxVN9EhASSY9SeI+Q3ORLIIL8xIEn8&#xA;heYUfoNOuZB844mdfxXKcw9B9zfpzWSPveJWMhksreQ9XjRjX3UHPOcgqRHm+hQNxBV8gzdirsVd&#xA;irsVdirsVdirRAIodweoxVjXmC2NsyXkY+K2bn8422dfuzaaWfEKPX73B1EeH1DoiVYMoZTUEVB9&#xA;jgZoiO8ljjCKFAHem/68pliBNlmJkNNeXDft0+W2EYojopmVIkk1JqfE5YAxaxVbJJHGheRgiLuW&#xA;Y0AwgWgmk68peR/MPm50ktQ2n6GT+91WVSGkA6i2Q0LeHM/CPntm10fZsp7y5Op1vakYbR3L3by1&#xA;5Y0by3paabpMAhgU8pHO8kjnrJI/VmP+e2dHjxiAoPM5cspm5Jrk2t2KuxV2KuxV2KuxVTubeK4t&#xA;5beUcopkaOQeKsKH8DgItINPP/ysd/0bDpV0a3uhyy6dcr4NbErGfkY+JGV6c+iuo2bdTH130luz&#xA;XUdNE1ZYhSXuP5v7cuBaCEkIKkgihHUHJMU90cj6kKfzGuRLIJX+Ykyw+QvMLt0OnXKdabyRMg/4&#xA;llOY+g+5v04/eR97xKyThZwJSnGNBT5KBnnOQ3InzfQ4CohXyDJ2KuxV2KuxV2KuxV2KuxVBarCs&#xA;tsQwqDVW+TChzI00qk1ZY2Ej0Z2bTolb7cVYm+cZK/wzPzD1FxcJ9IRuVNrsVQ8+oWUG0syK38ta&#xA;t/wI3ycccpcgwlkiOZTvRfJ/nTXWX9G6TJBbNT/Tr+tvDQ/tKpHqOP8AVXNhh7LyT57B12ftXHDl&#xA;uXpPlj8lNDsXjvNflOt3yHksUi8bSM/5MG/P5vWvhm60/Z+PH5l0ep7SyZOWwejKqqoVQFVRQAbA&#xA;AZnuubxV2KuxV2KuxV2KuxV2KuxVhHmLT7/y75kPnHS7Z7yzuY1h8xafCOUrJHtHdQr+08Y2Ze6/&#xA;fmPMGMuIcuv63JxkTjwHn0P6Ei0r8xLv/Gd9qzzSS+Qr+aHTrS8dXSO3ulhRuZWQKUR5GdGP81K0&#xA;yuOY8ZP8B2bZaccAH+UG70m906K5HIfBL2bx+eZoLgELdLtri3WVJQAtQUINQfHEqGNfnDKYvy31&#xA;ogkc0hi2FT+9uI4+/wDrZjauVYyXK0YvLEPKQABQdM85fQm8VdirsVdirsVdirsVdirsVQ9+f9Gb&#xA;3I/XluD6mGTkmH5bflppfmjTNTup9SvLO5t9QkiEdu0fp+mY0kB4vGx5FnP7X0Z1uj0ePLjEpc3l&#xA;9brsmHJwx5Mwj/ITQtxNreqMD04SQJ+uFsyh2XicM9r5vJMLX8j/ACJGa3SXd/7XN1LT7ojEMuho&#xA;MUejTPtHNLqyjRvJ/lbRaHStKtbSQf7tjiX1PpkILn78yY4ox5BxZ5Zy5lN8m1uxV2KuxV2KuxV2&#xA;KuxV2KuxV2KuxV2KobUtNsdTsJ7C/hW4s7lDHNC4qGU/57HtglEEUWUZGJsMJttR1nyFxsdaMup+&#xA;Ul+Gz1tQZJ7NO0V4q7tGvRZVHz9scSOPY7x7+73uSYjLvHafd3+5nNlfWd9ax3dlPHc2sw5RTxMH&#xA;Rh4hhUZkAgiw4piQaLEfzlr/AMq41ZgK8GtXPyS7hY9fYZja0XhkHK0BrNF5Znnb6A7FWsVbxV2K&#xA;uxVDXd9b2rQiclVnf01enwhiNgx7VyyGMyuujCcxGr6onK2bsVdiqC1J6IieJr93+3mRpxuS1ZC9&#xA;E/If/jl67/20B/1DxZ2fZP8AdPH9sf33weoZs3UuxV2KuxV2KuxV2KuxV2KuxV2KuxV2KuxV2Kux&#xA;V2KtMqspVgGVhQg7gg4q8b/MfTJfKfmPSLnyncyaH+lhdG7itt7dpYRG6sbdyYtwzdF7Zp+0sp08&#xA;ROHxdz2bjGoJhPfuSXXfzN83TeX9S0fWbKz1G2urWSL6zCXtpRVTSQqfVRip3oAMxcXbAyRojm5c&#xA;+x/DlxRPJL9Od5NPtnc1d4kZj7lQTnL5QBMgd70mM3Ee5VlQyROgYqXUryGxFRSoyETRtkRYY9ot&#xA;5cnToGLnmAVeu/xISprX5Zs8+OJkdnDwzPCEyXUZh1CnMY6cN/iFd+kn/kGD8uO9fEaOpS9lUffh&#xA;/LhfEKHvJTd28lvOA0Ugoy0/Ee4yzHjEDY5sJniFFrQ9SlDnTL1q3MQrBKf92xjv/rDvkNVhH1x5&#xA;H7CuDIfplz+9Osw3JdiqW6i1ZwPBRmZgHpaMnN6V+QqudG1yQiiNqRQH3W3ir+sZ1/ZQ/dPIdrn9&#xA;98Hp+bN1TsVdirsVdirsVdirsVdirsVdirsVdirsVdirsVdirsVea/nfBTT9Bvh1g1JYT/q3EMi/&#xA;rUDNT2zC8Bdt2LOs7zbVbcT2Uq0+LiQPkRQ5x2nnwyD2OWNxU/L8vqaJYt4Qov8AwI4/wx1QrJL3&#xA;sdObgPcmGUNyK8kflZ/iPRrq+ttZl0+aO/uYGhMCTRAI1RQExtuGB+1nX6TQwzYoyPOnltV2hPBl&#xA;MQNkxuPyS86R1Frqun3I7GaOaEn/AID1clLsYdCxj233hBt+UP5io1KaZKKfaS4mA/4aEHKz2NLv&#xA;bR23DuLR/KT8xabRafX/AJiZP+qWD+Rp96f5bh3FiDWHmMXl7aOtpHNYXElrPVpG/eRGhK0A+E9s&#xA;1epEMM+GV27PT5J5Y8UapBXem6zJIhknhhmgbnE8aNUMPAk9DjDLjrYEgpnjmTuRYZBo+pfXrTm6&#xA;8LiImO4i/lcdfoPUZrc+HglXTo5mHJxjz6o7KW1K77/elvkP1Zm4fpaJ83q35EwcPJ93NSgudTup&#xA;Qd9wOEVd/wDjHnZdmxrCHjO1JXmL0XM91zsVdirsVdirsVdirsVdirsVdirsVdirsVdirsVdirsV&#xA;YN+dMPLyBd3I+1ZT2tytP8m4RSfoVjmHr4cWGQc3s+fDmiXjunX8tz9YSXfYsnsDtTOJzYRCiHts&#xA;eQyu0Dot8bbS7eH+S4liav8AKshr/wASGW58XFMnyB+xrwz4YAeZZFmucx6N+Sf/ACjWpf8AbVuf&#xA;+Ix53nZH+LxeH7X/AL8vQc2TrHYq7FXgfmqEWv5geZIOiNNb3K/897dCf+GU5xvbsKzX3vZdiTvD&#xA;SU6hCGj9QfaXr8jmqwTo07XINrSSwW6t9Xur5R/oHO1tbrxElyshhb5VhK1982WTAZ4OL+a6+OYQ&#xA;z8P85k2aZ2iW6kAsoc9Cu/0Zl6c7U05Ob2X8nLU2/wCXGj8hR51muG9/WneQf8Kwzu9JGsYDwmtl&#xA;eWRZpmQ4rsVdirsVdirsVdirsVdirsVdirsVdirsVdirsVdirsVYl+bKq35c68GAI+rE0O+4ZSMp&#xA;1H92XI0v94HgejPSSVj19Fj9NRnF6kbD3vbYTv8ABLIHIlu4uyXDsP8AZhTmSRsD5NMTuR5szjbk&#xA;it/MAfvzRkUXZAvTPyUjp5NlnA2utQvJQetR6pT/AI0zvuzI1gj7nhe1JXnkz3M917sVdir5/wDz&#xA;oRofzBcDZbrT7aZhXqUkljH6s0PasRxg+T0fY8v3ZHmlkMhm0xXO5Me5912/hnLSHDkrzekibimX&#xA;k7Q/0t5T/MCOhLGC1a3p/v60jkuE4n/WIGdV2fj4sEvx3vM9o5eHPH8dyQeXb97iHi7FiyiVSdzv&#xA;1/XnOazEImw9Dp8lhV8xN6emyy90R6fMqafqyGj3nTLUbRJfQnlCx+oeVNGsiKNb2VvG3b4liUN1&#xA;989AxCogeT5/llcyfNN8m1uxV2KuxV2KuxV2KuxV2KuxV2KuxV2KuxV2KuxV2KuxVgH536tHZeQr&#xA;mz5UuNVlis4F77uHkNPARo2YmtycOMuZoMfFlHk8LgnaEsVFSy8fxB/hnLSjb18ZUgbJi8l3If2p&#xA;2/AAZbIUAPJqhuSfNlcGoW6We7VeCASSD2VanNRkwy4veXPjkFe4PbPyssHsfy90KFxR3thcMPe5&#xA;Yz/8zM7/AE0eHGB5PBaqXFkkfNlWXuO7FXYq+evzlvEufzGmjU1NjY29vJ7MzPNT/gZRmh7UlcwH&#xA;o+yI1AnzSzTHU6aqEgMQ9BXelTnM5x+8v3PRYj6Xon5PW8cHkPXdRnA9O7urp+RGxhhiWL9aNnZ9&#xA;nQ4cLx3aU+LPs8g8suUNpXYMgU/Su2czrBYL0+mNUneu2xu7NLNTR7ueC3T5yyqn6jmL2dG8wDbr&#xA;pcOIl9LqqqoVQFVRQAbAAZ6C+ft4q7FXYq7FXYq7FXYq7FXYq7FXYq7FXYq7FXYq7FXYqsnnht4J&#xA;J5nEcMSl5JG2CqoqSfkMSaSBb5j85+cbjzfr51GT93YW4aPSbQ9VhJ3lcfzyUFfAUGc3rdSckqHI&#xA;PUaDSjFHf6ikF5cehFVRylc8Yk8WOYcY2XOnKg3aQehbpGTVhu58WO5/HGUrNrCNCkVa2VzqN9aa&#xA;TbEibVJktAwFaLK1HY+yrUnJ4MXHMDza9Rl4IEvrCCCKCCOCJeEUShI1HQKooB92daBTxpNr8UOx&#xA;VKfNXmbTfLWh3Gr6g37qEUjiH25ZW2SNB/Mx/r0yGTIIRstmLEZy4Q+Yrq+vdS1C71S/p9d1CZp5&#xA;wvRS32UX2RaKM5bPlM5EvX6fCMcBFTa9azQ3PX0lPEfMEU+knKDj49u9u4+Hd695oul8l/k5Y+Xu&#xA;QTV9RthZpD39S4+O7fxonqPv4kZ0maQxYa608vhgc2e+l/2PII19NVVNggAX6Ns5w7vUDZkfkiN9&#xA;Q82eXtN3Pp363fyS1Rpv+JIMyOz8F6gS8nE7Sy1gIfSudU8i7FXYq7FXYq7FXYq7FXYq7FXYq7FX&#xA;Yq7FXYq7FXYq7FUl87afeaj5P1qws1L3dzZTxQIDQszRkBf9l0yvKCYkDubMMgJgnvfJ8DOkIC/D&#xA;ezP6TgjePjX4Sp6cAOnjnMTG+/IPXQltY5l00jtqRjQ/vlVUiJ34hgWd6fIUwAelJPq80dFOJJJF&#xA;UfBH8JkPQt3A+WVmNNglb078jfKr3uqS+a7lKWlqHttKJ/blb4Zph7KvwA96nwzc9m6evWXRdq6m&#xA;/QHt2bd0rsVdirwj/nIPWLtvMmk6OoLQw2xvIo/2WnlkeLk3/GNIj9+antOR2HR3XZUBvLq85Wbg&#xA;8cDEyTEVYqKADxPhmlrq72+nVlf5beV5PMvm63Vk5aXpLpd6g5+yXU1hh9y7CpH8oOZ/Z+n4pcR5&#xA;B13aep4IcI5lA/mF5lm1zz1qEz8njtZXsbGHtHDA5R5N+nNwW8e2DX5DOZ7gns7EIQHeUljmjk5c&#xA;DXgeLHtUZgEU7EG3pH5EaK935k1DXGWttp8P1OBj0M8xDycT4oigH/Wzc9l4ucnR9r5uUXuWbh0b&#xA;sVdirsVdirsVdirsVdirsVdirsVdirsVdirsVdirsVdirGdd/LXyNrt4b3U9Jjlu23e4jaSB2PSr&#xA;tC0Zb/ZZTPTwlzDfj1OSAoFIdd/I3ybe2cMeko2i3VvX07qAmUsG6iYSkmQf7KvvlWXRY5CuTdi1&#xA;+SErJtJdI/5x4sIJEXVdbmvrNTVrWGEWvPepDvzlah70plMOzYg2TbfPtSZjQFPWLKztLK0hs7SJ&#xA;YLWBBHDCgoqqooABmwAAFB1hJJsq2FDsVdirD/zB/Lew83xW8v1hrHVbMMLa9VQ44t1jkQkcl79d&#xA;vvzG1GmjlG7laXVywnbk86s/+cfvMxun+tazaRQSNV5oI5JJeI2AVX4KNvc5gjsvvOzsT2vtsN3r&#xA;3lbyrpHljSY9M0uMrEp5SyvvLLIftSSN3Y/h0G2bPHjEBQdRlyyySsvHfPH5Nea4tc1HUfLcMeoW&#xA;upyvOITKkM0MkhLMP3pVGQMx40auazU6CUpXHk7bSdoxjHhlsUJ5f/JLzteNHBqCRaJZJQSSGRLi&#xA;cr39NYiyVPizZXj7NkTcm7L2rARqG73Ly55d0vy7o8Gk6ZGY7WAbFjV3Y7s7ttVmPX+mbjHARFB0&#xA;WTIZys80yybB2KuxV2KuxV2KuxV2KuxV2KuxV2KuxV2KuxV2KuxV2KuxV2KuxV2KuxV2KuxV2Kux&#xA;V2KuxV2KuxV2KuxV2KuxV2KuxV2KuxV2KuxV2KuxV2KuxV2KuxV2KuxV2KuxV2KuxV2KuxV2KuxV&#xA;2KuxVK9Y8yadpc8NpIJbnULlWe3sLWNpp3RCAzlV2RFLAF3KrUgVqRiqzSfNGn6jeSaeYrix1KJP&#xA;VNleRNDI0dQPUjO8cqgkBjGzcSQGoTiqb4q7FXYq7FXYq7FXYq7FXYq7FXYq7FXYq7FXYq7FXYq7&#xA;FXYq7FXYq7FXYq7FXgWu/nB+YkPmjUGstPV00mPU4hoyW9wWUR39pbQ3F2xZUl/cM9wnpMo4Egn9&#xA;rFXXf52/mHKtnb/omGNL/TbyVpLeC4aX1oheLHPETJRY/wDRY2+ATL8YrIKqWVULr8+fP9ldnT49&#xA;Os5J1iuUhtpoLw3ANpbQypPLKGWJ1naU/CgqtN8VTe5/OD8yrLWLPTLnRbWYi+nsrq8hguBFcmG9&#xA;W34wAyl4m9BvV6S1/l41ZVVDy3+ZXnrzE3mu5uP9DFp5alubeztoLiL6nfiS4pDIZwS9zGqLyKUU&#xA;7UGKoTTPzv8AzGGm2a/om21FryWDR7HURDcwI2rXlvFLBHKkjBisDestwy0BIFOO4xVjn/OTXnXz&#xA;D5a1ybS7e4bThr7iQ6rEGMn6OhsTbfVNhxZGuLmd6D4kajdxiqRfkp56/MJNAghfSpNbt9FSfUvL&#xA;c0ARSiWlnIlxZlUozJIsip8KnjIwrVqLir0fTfzz/MW+0769baFp92tto0+s3kVub7mxikMSwRLL&#xA;FGeYYjmPiAAajE7YqgoP+ci/Pi2/lt7/AMtQ2o1pZnuboR3U0McYdo4pv3QegDcS6Bnan8tVqqky&#xA;/nt+Y+qW+las6nTbSY27XsdjbSSxLFFqkUVxz9WKV1c28q8grn4WH7XRVkPlr89fNUUvkrSLzT5t&#xA;Rl1a5mtde1Ga1uImgb669utCsccX7sGOtA3XfiaVVe+4q7FXYq7FXYq7FXYq7FXYq7FXYq7FXYq7&#xA;FXYq7FXYq7FXYq7FXYq7FWKaZ/yrL/Gl5+jf0V/jGkn130PR+u0+D1eXH46/Y5/RXFWV4q7FUj1f&#xA;/Bv+ItG/S31L9P1m/QX1jh9Y5cP331fl8VeHXj2xVAfmR/yrT9Br/wArA/R36K9Qej+kuH97/wAU&#xA;8vj50/k3p7Yqhvyx/wCVT/o64/5V3+jfqvIfXP0fx58qtw9b/dn83Hn70xVmmKuxV2KuxV2KuxV2&#xA;KuxV2KuxV2KuxV2KuxV//9k=</xmpGImg:image>
               </rdf:li>
            </rdf:Alt>
         </xmp:Thumbnails>
         <xmpMM:InstanceID>xmp.iid:ab1422f8-ef47-bc49-afe0-e124d852df53</xmpMM:InstanceID>
         <xmpMM:DocumentID>xmp.did:ab1422f8-ef47-bc49-afe0-e124d852df53</xmpMM:DocumentID>
         <xmpMM:OriginalDocumentID>uuid:5D20892493BFDB11914A8590D31508C8</xmpMM:OriginalDocumentID>
         <xmpMM:RenditionClass>proof:pdf</xmpMM:RenditionClass>
         <xmpMM:DerivedFrom rdf:parseType="Resource">
            <stRef:instanceID>xmp.iid:869ade87-2851-7243-8536-a4ba9aac512e</stRef:instanceID>
            <stRef:documentID>xmp.did:869ade87-2851-7243-8536-a4ba9aac512e</stRef:documentID>
            <stRef:originalDocumentID>uuid:5D20892493BFDB11914A8590D31508C8</stRef:originalDocumentID>
            <stRef:renditionClass>proof:pdf</stRef:renditionClass>
         </xmpMM:DerivedFrom>
         <xmpMM:History>
            <rdf:Seq>
               <rdf:li rdf:parseType="Resource">
                  <stEvt:action>saved</stEvt:action>
                  <stEvt:instanceID>xmp.iid:0D00A8957FFCE911BF21AE7D3DEBEFB1</stEvt:instanceID>
                  <stEvt:when>2019-11-01T14:27:33+06:00</stEvt:when>
                  <stEvt:softwareAgent>Adobe Illustrator CS5</stEvt:softwareAgent>
                  <stEvt:changed>/</stEvt:changed>
               </rdf:li>
               <rdf:li rdf:parseType="Resource">
                  <stEvt:action>saved</stEvt:action>
                  <stEvt:instanceID>xmp.iid:ab1422f8-ef47-bc49-afe0-e124d852df53</stEvt:instanceID>
                  <stEvt:when>2019-11-19T14:11:43+02:00</stEvt:when>
                  <stEvt:softwareAgent>Adobe Illustrator CC 22.0 (Windows)</stEvt:softwareAgent>
                  <stEvt:changed>/</stEvt:changed>
               </rdf:li>
            </rdf:Seq>
         </xmpMM:History>
         <illustrator:StartupProfile>Print</illustrator:StartupProfile>
         <xmpTPg:HasVisibleOverprint>False</xmpTPg:HasVisibleOverprint>
         <xmpTPg:HasVisibleTransparency>False</xmpTPg:HasVisibleTransparency>
         <xmpTPg:NPages>1</xmpTPg:NPages>
         <xmpTPg:MaxPageSize rdf:parseType="Resource">
            <stDim:w>259.075489</stDim:w>
            <stDim:h>204.126592</stDim:h>
            <stDim:unit>Millimeters</stDim:unit>
         </xmpTPg:MaxPageSize>
         <xmpTPg:PlateNames>
            <rdf:Seq>
               <rdf:li>Cyan</rdf:li>
               <rdf:li>Magenta</rdf:li>
               <rdf:li>Yellow</rdf:li>
               <rdf:li>Black</rdf:li>
            </rdf:Seq>
         </xmpTPg:PlateNames>
         <xmpTPg:SwatchGroups>
            <rdf:Seq>
               <rdf:li rdf:parseType="Resource">
                  <xmpG:groupName>Группа образцов по умолчанию</xmpG:groupName>
                  <xmpG:groupType>0</xmpG:groupType>
                  <xmpG:Colorants>
                     <rdf:Seq>
                        <rdf:li rdf:parseType="Resource">
                           <xmpG:swatchName>Белый</xmpG:swatchName>
                           <xmpG:mode>RGB</xmpG:mode>
                           <xmpG:type>PROCESS</xmpG:type>
                           <xmpG:red>255</xmpG:red>
                           <xmpG:green>255</xmpG:green>
                           <xmpG:blue>255</xmpG:blue>
                        </rdf:li>
                        <rdf:li rdf:parseType="Resource">
                           <xmpG:swatchName>Черный</xmpG:swatchName>
                           <xmpG:mode>RGB</xmpG:mode>
                           <xmpG:type>PROCESS</xmpG:type>
                           <xmpG:red>35</xmpG:red>
                           <xmpG:green>31</xmpG:green>
                           <xmpG:blue>32</xmpG:blue>
                        </rdf:li>
                        <rdf:li rdf:parseType="Resource">
                           <xmpG:swatchName>CMYK красный</xmpG:swatchName>
                           <xmpG:mode>RGB</xmpG:mode>
                           <xmpG:type>PROCESS</xmpG:type>
                           <xmpG:red>237</xmpG:red>
                           <xmpG:green>28</xmpG:green>
                           <xmpG:blue>36</xmpG:blue>
                        </rdf:li>
                        <rdf:li rdf:parseType="Resource">
                           <xmpG:swatchName>CMYK желтый</xmpG:swatchName>
                           <xmpG:mode>RGB</xmpG:mode>
                           <xmpG:type>PROCESS</xmpG:type>
                           <xmpG:red>255</xmpG:red>
                           <xmpG:green>242</xmpG:green>
                           <xmpG:blue>0</xmpG:blue>
                        </rdf:li>
                        <rdf:li rdf:parseType="Resource">
                           <xmpG:swatchName>CMYK зеленый</xmpG:swatchName>
                           <xmpG:mode>RGB</xmpG:mode>
                           <xmpG:type>PROCESS</xmpG:type>
                           <xmpG:red>0</xmpG:red>
                           <xmpG:green>166</xmpG:green>
                           <xmpG:blue>81</xmpG:blue>
                        </rdf:li>
                        <rdf:li rdf:parseType="Resource">
                           <xmpG:swatchName>CMYK голубой</xmpG:swatchName>
                           <xmpG:mode>RGB</xmpG:mode>
                           <xmpG:type>PROCESS</xmpG:type>
                           <xmpG:red>0</xmpG:red>
                           <xmpG:green>174</xmpG:green>
                           <xmpG:blue>239</xmpG:blue>
                        </rdf:li>
                        <rdf:li rdf:parseType="Resource">
                           <xmpG:swatchName>CMYK синий</xmpG:swatchName>
                           <xmpG:mode>RGB</xmpG:mode>
                           <xmpG:type>PROCESS</xmpG:type>
                           <xmpG:red>46</xmpG:red>
                           <xmpG:green>49</xmpG:green>
                           <xmpG:blue>146</xmpG:blue>
                        </rdf:li>
                        <rdf:li rdf:parseType="Resource">
                           <xmpG:swatchName>CMYK пурпурный</xmpG:swatchName>
                           <xmpG:mode>RGB</xmpG:mode>
                           <xmpG:type>PROCESS</xmpG:type>
                           <xmpG:red>236</xmpG:red>
                           <xmpG:green>0</xmpG:green>
                           <xmpG:blue>140</xmpG:blue>
                        </rdf:li>
                        <rdf:li rdf:parseType="Resource">
                           <xmpG:swatchName>C=15 M=100 Y=90 K=10</xmpG:swatchName>
                           <xmpG:mode>RGB</xmpG:mode>
                           <xmpG:type>PROCESS</xmpG:type>
                           <xmpG:red>190</xmpG:red>
                           <xmpG:green>30</xmpG:green>
                           <xmpG:blue>45</xmpG:blue>
                        </rdf:li>
                        <rdf:li rdf:parseType="Resource">
                           <xmpG:swatchName>C=0 M=90 Y=85 K=0</xmpG:swatchName>
                           <xmpG:mode>RGB</xmpG:mode>
                           <xmpG:type>PROCESS</xmpG:type>
                           <xmpG:red>239</xmpG:red>
                           <xmpG:green>65</xmpG:green>
                           <xmpG:blue>54</xmpG:blue>
                        </rdf:li>
                        <rdf:li rdf:parseType="Resource">
                           <xmpG:swatchName>C=0 M=80 Y=95 K=0</xmpG:swatchName>
                           <xmpG:mode>RGB</xmpG:mode>
                           <xmpG:type>PROCESS</xmpG:type>
                           <xmpG:red>241</xmpG:red>
                           <xmpG:green>90</xmpG:green>
                           <xmpG:blue>41</xmpG:blue>
                        </rdf:li>
                        <rdf:li rdf:parseType="Resource">
                           <xmpG:swatchName>C=0 M=50 Y=100 K=0</xmpG:swatchName>
                           <xmpG:mode>RGB</xmpG:mode>
                           <xmpG:type>PROCESS</xmpG:type>
                           <xmpG:red>247</xmpG:red>
                           <xmpG:green>148</xmpG:green>
                           <xmpG:blue>30</xmpG:blue>
                        </rdf:li>
                        <rdf:li rdf:parseType="Resource">
                           <xmpG:swatchName>C=0 M=35 Y=85 K=0</xmpG:swatchName>
                           <xmpG:mode>RGB</xmpG:mode>
                           <xmpG:type>PROCESS</xmpG:type>
                           <xmpG:red>251</xmpG:red>
                           <xmpG:green>176</xmpG:green>
                           <xmpG:blue>64</xmpG:blue>
                        </rdf:li>
                        <rdf:li rdf:parseType="Resource">
                           <xmpG:swatchName>C=5 M=0 Y=90 K=0</xmpG:swatchName>
                           <xmpG:mode>RGB</xmpG:mode>
                           <xmpG:type>PROCESS</xmpG:type>
                           <xmpG:red>249</xmpG:red>
                           <xmpG:green>237</xmpG:green>
                           <xmpG:blue>50</xmpG:blue>
                        </rdf:li>
                        <rdf:li rdf:parseType="Resource">
                           <xmpG:swatchName>C=20 M=0 Y=100 K=0</xmpG:swatchName>
                           <xmpG:mode>RGB</xmpG:mode>
                           <xmpG:type>PROCESS</xmpG:type>
                           <xmpG:red>215</xmpG:red>
                           <xmpG:green>223</xmpG:green>
                           <xmpG:blue>35</xmpG:blue>
                        </rdf:li>
                        <rdf:li rdf:parseType="Resource">
                           <xmpG:swatchName>C=50 M=0 Y=100 K=0</xmpG:swatchName>
                           <xmpG:mode>RGB</xmpG:mode>
                           <xmpG:type>PROCESS</xmpG:type>
                           <xmpG:red>141</xmpG:red>
                           <xmpG:green>198</xmpG:green>
                           <xmpG:blue>63</xmpG:blue>
                        </rdf:li>
                        <rdf:li rdf:parseType="Resource">
                           <xmpG:swatchName>C=75 M=0 Y=100 K=0</xmpG:swatchName>
                           <xmpG:mode>RGB</xmpG:mode>
                           <xmpG:type>PROCESS</xmpG:type>
                           <xmpG:red>57</xmpG:red>
                           <xmpG:green>181</xmpG:green>
                           <xmpG:blue>74</xmpG:blue>
                        </rdf:li>
                        <rdf:li rdf:parseType="Resource">
                           <xmpG:swatchName>C=85 M=10 Y=100 K=10</xmpG:swatchName>
                           <xmpG:mode>RGB</xmpG:mode>
                           <xmpG:type>PROCESS</xmpG:type>
                           <xmpG:red>0</xmpG:red>
                           <xmpG:green>148</xmpG:green>
                           <xmpG:blue>68</xmpG:blue>
                        </rdf:li>
                        <rdf:li rdf:parseType="Resource">
                           <xmpG:swatchName>C=90 M=30 Y=95 K=30</xmpG:swatchName>
                           <xmpG:mode>RGB</xmpG:mode>
                           <xmpG:type>PROCESS</xmpG:type>
                           <xmpG:red>0</xmpG:red>
                           <xmpG:green>104</xmpG:green>
                           <xmpG:blue>56</xmpG:blue>
                        </rdf:li>
                        <rdf:li rdf:parseType="Resource">
                           <xmpG:swatchName>C=75 M=0 Y=75 K=0</xmpG:swatchName>
                           <xmpG:mode>RGB</xmpG:mode>
                           <xmpG:type>PROCESS</xmpG:type>
                           <xmpG:red>43</xmpG:red>
                           <xmpG:green>182</xmpG:green>
                           <xmpG:blue>115</xmpG:blue>
                        </rdf:li>
                        <rdf:li rdf:parseType="Resource">
                           <xmpG:swatchName>C=80 M=10 Y=45 K=0</xmpG:swatchName>
                           <xmpG:mode>RGB</xmpG:mode>
                           <xmpG:type>PROCESS</xmpG:type>
                           <xmpG:red>0</xmpG:red>
                           <xmpG:green>167</xmpG:green>
                           <xmpG:blue>157</xmpG:blue>
                        </rdf:li>
                        <rdf:li rdf:parseType="Resource">
                           <xmpG:swatchName>C=70 M=15 Y=0 K=0</xmpG:swatchName>
                           <xmpG:mode>RGB</xmpG:mode>
                           <xmpG:type>PROCESS</xmpG:type>
                           <xmpG:red>39</xmpG:red>
                           <xmpG:green>170</xmpG:green>
                           <xmpG:blue>225</xmpG:blue>
                        </rdf:li>
                        <rdf:li rdf:parseType="Resource">
                           <xmpG:swatchName>C=85 M=50 Y=0 K=0</xmpG:swatchName>
                           <xmpG:mode>RGB</xmpG:mode>
                           <xmpG:type>PROCESS</xmpG:type>
                           <xmpG:red>28</xmpG:red>
                           <xmpG:green>117</xmpG:green>
                           <xmpG:blue>188</xmpG:blue>
                        </rdf:li>
                        <rdf:li rdf:parseType="Resource">
                           <xmpG:swatchName>C=100 M=95 Y=5 K=0</xmpG:swatchName>
                           <xmpG:mode>RGB</xmpG:mode>
                           <xmpG:type>PROCESS</xmpG:type>
                           <xmpG:red>43</xmpG:red>
                           <xmpG:green>57</xmpG:green>
                           <xmpG:blue>144</xmpG:blue>
                        </rdf:li>
                        <rdf:li rdf:parseType="Resource">
                           <xmpG:swatchName>C=100 M=100 Y=25 K=25</xmpG:swatchName>
                           <xmpG:mode>RGB</xmpG:mode>
                           <xmpG:type>PROCESS</xmpG:type>
                           <xmpG:red>38</xmpG:red>
                           <xmpG:green>34</xmpG:green>
                           <xmpG:blue>98</xmpG:blue>
                        </rdf:li>
                        <rdf:li rdf:parseType="Resource">
                           <xmpG:swatchName>C=75 M=100 Y=0 K=0</xmpG:swatchName>
                           <xmpG:mode>RGB</xmpG:mode>
                           <xmpG:type>PROCESS</xmpG:type>
                           <xmpG:red>102</xmpG:red>
                           <xmpG:green>45</xmpG:green>
                           <xmpG:blue>145</xmpG:blue>
                        </rdf:li>
                        <rdf:li rdf:parseType="Resource">
                           <xmpG:swatchName>C=50 M=100 Y=0 K=0</xmpG:swatchName>
                           <xmpG:mode>RGB</xmpG:mode>
                           <xmpG:type>PROCESS</xmpG:type>
                           <xmpG:red>146</xmpG:red>
                           <xmpG:green>39</xmpG:green>
                           <xmpG:blue>143</xmpG:blue>
                        </rdf:li>
                        <rdf:li rdf:parseType="Resource">
                           <xmpG:swatchName>C=35 M=100 Y=35 K=10</xmpG:swatchName>
                           <xmpG:mode>RGB</xmpG:mode>
                           <xmpG:type>PROCESS</xmpG:type>
                           <xmpG:red>158</xmpG:red>
                           <xmpG:green>31</xmpG:green>
                           <xmpG:blue>99</xmpG:blue>
                        </rdf:li>
                        <rdf:li rdf:parseType="Resource">
                           <xmpG:swatchName>C=10 M=100 Y=50 K=0</xmpG:swatchName>
                           <xmpG:mode>RGB</xmpG:mode>
                           <xmpG:type>PROCESS</xmpG:type>
                           <xmpG:red>218</xmpG:red>
                           <xmpG:green>28</xmpG:green>
                           <xmpG:blue>92</xmpG:blue>
                        </rdf:li>
                        <rdf:li rdf:parseType="Resource">
                           <xmpG:swatchName>C=0 M=95 Y=20 K=0</xmpG:swatchName>
                           <xmpG:mode>RGB</xmpG:mode>
                           <xmpG:type>PROCESS</xmpG:type>
                           <xmpG:red>238</xmpG:red>
                           <xmpG:green>42</xmpG:green>
                           <xmpG:blue>123</xmpG:blue>
                        </rdf:li>
                        <rdf:li rdf:parseType="Resource">
                           <xmpG:swatchName>C=25 M=25 Y=40 K=0</xmpG:swatchName>
                           <xmpG:mode>RGB</xmpG:mode>
                           <xmpG:type>PROCESS</xmpG:type>
                           <xmpG:red>194</xmpG:red>
                           <xmpG:green>181</xmpG:green>
                           <xmpG:blue>155</xmpG:blue>
                        </rdf:li>
                        <rdf:li rdf:parseType="Resource">
                           <xmpG:swatchName>C=40 M=45 Y=50 K=5</xmpG:swatchName>
                           <xmpG:mode>RGB</xmpG:mode>
                           <xmpG:type>PROCESS</xmpG:type>
                           <xmpG:red>155</xmpG:red>
                           <xmpG:green>133</xmpG:green>
                           <xmpG:blue>121</xmpG:blue>
                        </rdf:li>
                        <rdf:li rdf:parseType="Resource">
                           <xmpG:swatchName>C=50 M=50 Y=60 K=25</xmpG:swatchName>
                           <xmpG:mode>RGB</xmpG:mode>
                           <xmpG:type>PROCESS</xmpG:type>
                           <xmpG:red>114</xmpG:red>
                           <xmpG:green>102</xmpG:green>
                           <xmpG:blue>88</xmpG:blue>
                        </rdf:li>
                        <rdf:li rdf:parseType="Resource">
                           <xmpG:swatchName>C=55 M=60 Y=65 K=40</xmpG:swatchName>
                           <xmpG:mode>RGB</xmpG:mode>
                           <xmpG:type>PROCESS</xmpG:type>
                           <xmpG:red>89</xmpG:red>
                           <xmpG:green>74</xmpG:green>
                           <xmpG:blue>66</xmpG:blue>
                        </rdf:li>
                        <rdf:li rdf:parseType="Resource">
                           <xmpG:swatchName>C=25 M=40 Y=65 K=0</xmpG:swatchName>
                           <xmpG:mode>RGB</xmpG:mode>
                           <xmpG:type>PROCESS</xmpG:type>
                           <xmpG:red>196</xmpG:red>
                           <xmpG:green>154</xmpG:green>
                           <xmpG:blue>108</xmpG:blue>
                        </rdf:li>
                        <rdf:li rdf:parseType="Resource">
                           <xmpG:swatchName>C=30 M=50 Y=75 K=10</xmpG:swatchName>
                           <xmpG:mode>RGB</xmpG:mode>
                           <xmpG:type>PROCESS</xmpG:type>
                           <xmpG:red>169</xmpG:red>
                           <xmpG:green>124</xmpG:green>
                           <xmpG:blue>80</xmpG:blue>
                        </rdf:li>
                        <rdf:li rdf:parseType="Resource">
                           <xmpG:swatchName>C=35 M=60 Y=80 K=25</xmpG:swatchName>
                           <xmpG:mode>RGB</xmpG:mode>
                           <xmpG:type>PROCESS</xmpG:type>
                           <xmpG:red>139</xmpG:red>
                           <xmpG:green>94</xmpG:green>
                           <xmpG:blue>60</xmpG:blue>
                        </rdf:li>
                        <rdf:li rdf:parseType="Resource">
                           <xmpG:swatchName>C=40 M=65 Y=90 K=35</xmpG:swatchName>
                           <xmpG:mode>RGB</xmpG:mode>
                           <xmpG:type>PROCESS</xmpG:type>
                           <xmpG:red>117</xmpG:red>
                           <xmpG:green>76</xmpG:green>
                           <xmpG:blue>41</xmpG:blue>
                        </rdf:li>
                        <rdf:li rdf:parseType="Resource">
                           <xmpG:swatchName>C=40 M=70 Y=100 K=50</xmpG:swatchName>
                           <xmpG:mode>RGB</xmpG:mode>
                           <xmpG:type>PROCESS</xmpG:type>
                           <xmpG:red>96</xmpG:red>
                           <xmpG:green>57</xmpG:green>
                           <xmpG:blue>19</xmpG:blue>
                        </rdf:li>
                        <rdf:li rdf:parseType="Resource">
                           <xmpG:swatchName>C=50 M=70 Y=80 K=70</xmpG:swatchName>
                           <xmpG:mode>RGB</xmpG:mode>
                           <xmpG:type>PROCESS</xmpG:type>
                           <xmpG:red>60</xmpG:red>
                           <xmpG:green>36</xmpG:green>
                           <xmpG:blue>21</xmpG:blue>
                        </rdf:li>
                     </rdf:Seq>
                  </xmpG:Colorants>
               </rdf:li>
               <rdf:li rdf:parseType="Resource">
                  <xmpG:groupName>Оттенки серого</xmpG:groupName>
                  <xmpG:groupType>1</xmpG:groupType>
                  <xmpG:Colorants>
                     <rdf:Seq>
                        <rdf:li rdf:parseType="Resource">
                           <xmpG:swatchName>C=0 M=0 Y=0 K=100</xmpG:swatchName>
                           <xmpG:mode>RGB</xmpG:mode>
                           <xmpG:type>PROCESS</xmpG:type>
                           <xmpG:red>35</xmpG:red>
                           <xmpG:green>31</xmpG:green>
                           <xmpG:blue>32</xmpG:blue>
                        </rdf:li>
                        <rdf:li rdf:parseType="Resource">
                           <xmpG:swatchName>C=0 M=0 Y=0 K=90</xmpG:swatchName>
                           <xmpG:mode>RGB</xmpG:mode>
                           <xmpG:type>PROCESS</xmpG:type>
                           <xmpG:red>65</xmpG:red>
                           <xmpG:green>64</xmpG:green>
                           <xmpG:blue>66</xmpG:blue>
                        </rdf:li>
                        <rdf:li rdf:parseType="Resource">
                           <xmpG:swatchName>C=0 M=0 Y=0 K=80</xmpG:swatchName>
                           <xmpG:mode>RGB</xmpG:mode>
                           <xmpG:type>PROCESS</xmpG:type>
                           <xmpG:red>88</xmpG:red>
                           <xmpG:green>89</xmpG:green>
                           <xmpG:blue>91</xmpG:blue>
                        </rdf:li>
                        <rdf:li rdf:parseType="Resource">
                           <xmpG:swatchName>C=0 M=0 Y=0 K=70</xmpG:swatchName>
                           <xmpG:mode>RGB</xmpG:mode>
                           <xmpG:type>PROCESS</xmpG:type>
                           <xmpG:red>109</xmpG:red>
                           <xmpG:green>110</xmpG:green>
                           <xmpG:blue>113</xmpG:blue>
                        </rdf:li>
                        <rdf:li rdf:parseType="Resource">
                           <xmpG:swatchName>C=0 M=0 Y=0 K=60</xmpG:swatchName>
                           <xmpG:mode>RGB</xmpG:mode>
                           <xmpG:type>PROCESS</xmpG:type>
                           <xmpG:red>128</xmpG:red>
                           <xmpG:green>130</xmpG:green>
                           <xmpG:blue>133</xmpG:blue>
                        </rdf:li>
                        <rdf:li rdf:parseType="Resource">
                           <xmpG:swatchName>C=0 M=0 Y=0 K=50</xmpG:swatchName>
                           <xmpG:mode>RGB</xmpG:mode>
                           <xmpG:type>PROCESS</xmpG:type>
                           <xmpG:red>147</xmpG:red>
                           <xmpG:green>149</xmpG:green>
                           <xmpG:blue>152</xmpG:blue>
                        </rdf:li>
                        <rdf:li rdf:parseType="Resource">
                           <xmpG:swatchName>C=0 M=0 Y=0 K=40</xmpG:swatchName>
                           <xmpG:mode>RGB</xmpG:mode>
                           <xmpG:type>PROCESS</xmpG:type>
                           <xmpG:red>167</xmpG:red>
                           <xmpG:green>169</xmpG:green>
                           <xmpG:blue>172</xmpG:blue>
                        </rdf:li>
                        <rdf:li rdf:parseType="Resource">
                           <xmpG:swatchName>C=0 M=0 Y=0 K=30</xmpG:swatchName>
                           <xmpG:mode>RGB</xmpG:mode>
                           <xmpG:type>PROCESS</xmpG:type>
                           <xmpG:red>188</xmpG:red>
                           <xmpG:green>190</xmpG:green>
                           <xmpG:blue>192</xmpG:blue>
                        </rdf:li>
                        <rdf:li rdf:parseType="Resource">
                           <xmpG:swatchName>C=0 M=0 Y=0 K=20</xmpG:swatchName>
                           <xmpG:mode>RGB</xmpG:mode>
                           <xmpG:type>PROCESS</xmpG:type>
                           <xmpG:red>209</xmpG:red>
                           <xmpG:green>211</xmpG:green>
                           <xmpG:blue>212</xmpG:blue>
                        </rdf:li>
                        <rdf:li rdf:parseType="Resource">
                           <xmpG:swatchName>C=0 M=0 Y=0 K=10</xmpG:swatchName>
                           <xmpG:mode>RGB</xmpG:mode>
                           <xmpG:type>PROCESS</xmpG:type>
                           <xmpG:red>230</xmpG:red>
                           <xmpG:green>231</xmpG:green>
                           <xmpG:blue>232</xmpG:blue>
                        </rdf:li>
                        <rdf:li rdf:parseType="Resource">
                           <xmpG:swatchName>C=0 M=0 Y=0 K=5</xmpG:swatchName>
                           <xmpG:mode>RGB</xmpG:mode>
                           <xmpG:type>PROCESS</xmpG:type>
                           <xmpG:red>241</xmpG:red>
                           <xmpG:green>242</xmpG:green>
                           <xmpG:blue>242</xmpG:blue>
                        </rdf:li>
                     </rdf:Seq>
                  </xmpG:Colorants>
               </rdf:li>
               <rdf:li rdf:parseType="Resource">
                  <xmpG:groupName>Яркие тона</xmpG:groupName>
                  <xmpG:groupType>1</xmpG:groupType>
                  <xmpG:Colorants>
                     <rdf:Seq>
                        <rdf:li rdf:parseType="Resource">
                           <xmpG:swatchName>C=0 M=100 Y=100 K=0</xmpG:swatchName>
                           <xmpG:mode>RGB</xmpG:mode>
                           <xmpG:type>PROCESS</xmpG:type>
                           <xmpG:red>237</xmpG:red>
                           <xmpG:green>28</xmpG:green>
                           <xmpG:blue>36</xmpG:blue>
                        </rdf:li>
                        <rdf:li rdf:parseType="Resource">
                           <xmpG:swatchName>C=0 M=75 Y=100 K=0</xmpG:swatchName>
                           <xmpG:mode>RGB</xmpG:mode>
                           <xmpG:type>PROCESS</xmpG:type>
                           <xmpG:red>242</xmpG:red>
                           <xmpG:green>101</xmpG:green>
                           <xmpG:blue>34</xmpG:blue>
                        </rdf:li>
                        <rdf:li rdf:parseType="Resource">
                           <xmpG:swatchName>C=0 M=10 Y=95 K=0</xmpG:swatchName>
                           <xmpG:mode>RGB</xmpG:mode>
                           <xmpG:type>PROCESS</xmpG:type>
                           <xmpG:red>255</xmpG:red>
                           <xmpG:green>222</xmpG:green>
                           <xmpG:blue>23</xmpG:blue>
                        </rdf:li>
                        <rdf:li rdf:parseType="Resource">
                           <xmpG:swatchName>C=85 M=10 Y=100 K=0</xmpG:swatchName>
                           <xmpG:mode>RGB</xmpG:mode>
                           <xmpG:type>PROCESS</xmpG:type>
                           <xmpG:red>0</xmpG:red>
                           <xmpG:green>161</xmpG:green>
                           <xmpG:blue>75</xmpG:blue>
                        </rdf:li>
                        <rdf:li rdf:parseType="Resource">
                           <xmpG:swatchName>C=100 M=90 Y=0 K=0</xmpG:swatchName>
                           <xmpG:mode>RGB</xmpG:mode>
                           <xmpG:type>PROCESS</xmpG:type>
                           <xmpG:red>33</xmpG:red>
                           <xmpG:green>64</xmpG:green>
                           <xmpG:blue>154</xmpG:blue>
                        </rdf:li>
                        <rdf:li rdf:parseType="Resource">
                           <xmpG:swatchName>C=60 M=90 Y=0 K=0</xmpG:swatchName>
                           <xmpG:mode>RGB</xmpG:mode>
                           <xmpG:type>PROCESS</xmpG:type>
                           <xmpG:red>127</xmpG:red>
                           <xmpG:green>63</xmpG:green>
                           <xmpG:blue>152</xmpG:blue>
                        </rdf:li>
                     </rdf:Seq>
                  </xmpG:Colorants>
               </rdf:li>
            </rdf:Seq>
         </xmpTPg:SwatchGroups>
         <pdf:Producer>Adobe PDF library 9.90</pdf:Producer>
      </rdf:Description>
   </rdf:RDF>
</x:xmpmeta>
                                                                                                    
                                                                                                    
                                                                                                    
                                                                                                    
                                                                                                    
                                                                                                    
                                                                                                    
                                                                                                    
                                                                                                    
                                                                                                    
                                                                                                    
                                                                                                    
                                                                                                    
                                                                                                    
                                                                                                    
                                                                                                    
                                                                                                    
                                                                                                    
                                                                                                    
                                                                                                    
                           
<?xpacket end="w"?>
	</metadata>
<g id="layer2">
	<g>
		<g>
			<path fill-rule="evenodd" clip-rule="evenodd" fill="#F58220" d="M419.1,405.1c-3.1-25.6-53-41.1-50.6-10.8
				c5.4,69,19.4,103.8-2.5,130.4c-28.1,34.2,6.1,46.9,22.8,36C406.7,549.1,430.3,498.1,419.1,405.1z"/>
			<path fill-rule="evenodd" clip-rule="evenodd" fill="#D46E28" d="M412.7,521.1c6.9-22.2,11.2-53.2,8.6-93.4
				c-5.6-5-13.6-7.9-24.7-7.9c-2.2,0-11.2,2.6-11,3.8c0,0,17.5,21.3,20.8,30.6C411.5,468.6,410.6,505.1,412.7,521.1z"/>
			<path fill-rule="evenodd" clip-rule="evenodd" fill="#BC6128" d="M377.5,475.4c1.4,20.6-0.6,36-11.5,49.3
				c-28.1,34.2,6.1,46.9,22.8,36c7.1-4.6,15.1-15.4,21.4-32.6c-0.2-1.2-0.3-2.4-0.6-3.6c-3.2-17.4-4.3-26.1-14.6-11.5
				c1.8-10.2,0.3-58.9-11.1-50.4C383,463.4,380.6,468.5,377.5,475.4z"/>
			<path fill-rule="evenodd" clip-rule="evenodd" fill="#7F401B" d="M417.2,405.3c-1.3-11-12-20-22.9-23.8c-3.5-1.2-6.9-1.9-10.1-2
				c-3.1-0.1-5.9,0.5-8.2,1.7c-3.8,2-6.1,6.2-5.6,13c1.5,18.8,3.6,35,5.4,49.1c5,38.6,8.1,62.6-8.4,82.7
				c-8.1,9.9-10.8,17.8-10.2,23.7c0.1,0.6,0.2,1.2,0.3,1.8c2.3-5.5,6.1-10.1,11.3-13.8c0.7-0.5,1.6-0.3,2.1,0.3
				c0.5,0.7,0.3,1.6-0.3,2.1c-5.6,4.1-9.4,9.2-11.4,15.3c0.5,0.7,1,1.3,1.6,1.9c2,2,4.6,3.5,7.6,4.4c0.9,0.3,1.9,0.5,2.9,0.7
				c0.4-2.8,1.4-5.5,3-8.1c1.9-3.2,4.5-6.3,8-9.3c0.6-0.5,1.6-0.5,2.1,0.2c0.5,0.6,0.5,1.6-0.2,2.1c-3.2,2.8-5.7,5.6-7.4,8.6
				c-1.3,2.3-2.2,4.6-2.6,6.9c4.7,0.2,9.6-0.9,13.4-3.4c9.9-6.4,21.6-25.5,27.8-57.7C420.4,476.9,422,445,417.2,405.3L417.2,405.3z
				 M395.5,377.8c12.1,4.3,24,14.5,25.5,27c4.8,40.1,3.2,72.5-1.6,97.3c-6.5,33.4-18.9,53.3-29.5,60.2c-6.4,4.2-15.2,5.1-22.5,3
				c-3.6-1.1-6.8-2.8-9.2-5.4c-2.5-2.6-4.2-5.9-4.7-9.9c-0.8-6.8,2.1-15.7,11-26.5c15.4-18.8,12.4-42.2,7.5-79.7
				c-1.9-14.3-4-30.6-5.4-49.3c-0.7-8.5,2.5-13.9,7.6-16.6c2.9-1.5,6.3-2.2,10-2.2C387.8,375.7,391.7,376.5,395.5,377.8z"/>
			<path fill-rule="evenodd" clip-rule="evenodd" fill="#F58220" d="M241.5,396.6c-3.1-25.6-46.7-39.9-44.3-9.5
				c5.4,69,19.7,104.5-3.1,130.4c-26.8,30.4,6.7,46.9,23.4,36C235.4,541.9,252.7,489.5,241.5,396.6z"/>
			<path fill-rule="evenodd" clip-rule="evenodd" fill="#D46E28" d="M239.4,510.5c5.5-24.4,7.8-58.7,3.4-102.8
				c-9.1-13.7-22.1-23.6-36.2-16.6c-0.7,0.3-1,0.9-1.1,1.7c-1.5,18.1,41.5,24.9,17.1,112.4C218.1,521.4,228.8,523.5,239.4,510.5z"/>
			<path fill-rule="evenodd" clip-rule="evenodd" fill="#BC6128" d="M205.7,461.7c2.3,24.2,1,41.4-11.6,55.7
				c-26.8,30.4,6.7,46.9,23.4,36c9.1-5.9,18-22.4,23.2-49.3c-2.5-10.8-8.4-15.4-16.8-6.6c-1.5,1.6-1.3-27.5-2-35.1
				c-1.1-11.8-5-16.6-7.1-17.4C211.6,443.9,208.9,451.8,205.7,461.7z"/>
			<path fill-rule="evenodd" clip-rule="evenodd" fill="#7F401B" d="M239.6,396.8c-1.3-10.8-10.3-19.4-19.7-23.1
				c-3-1.2-6-1.8-8.7-1.9c-2.6,0-5.1,0.5-7,1.6c-3.5,2.1-5.6,6.4-5.1,13.5c1.5,18.6,3.5,34.7,5.4,48.8c5.1,39,8.2,63.4-9,83
				c-7.8,8.8-10.2,16.3-9.4,22.1c0.1,0.9,0.3,1.8,0.6,2.6c0.7-1.9,1.6-3.8,2.6-5.6c1.8-3.1,4.1-6.1,7-8.8c0.6-0.6,1.5-0.5,2.1,0
				c0.6,0.6,0.5,1.5,0,2.1c-2.7,2.6-4.8,5.3-6.5,8.2c-1.4,2.5-2.5,5.1-3.2,7.9c0.4,0.5,0.8,1,1.2,1.5c2,2.2,4.7,3.8,7.6,4.9
				c0.3,0.1,0.6,0.2,0.9,0.3c0.6-2.9,1.4-5.7,2.6-8.2c1.4-3.2,3.3-6.1,5.7-8.7c0.5-0.6,1.5-0.7,2.1-0.1c0.6,0.5,0.7,1.5,0.1,2.1
				c-2.1,2.4-3.9,5.1-5.2,8c-1.1,2.4-1.9,5-2.4,7.7c5.3,1,10.9,0.2,15.3-2.6c9.5-6.2,18.9-24.6,23.6-55.4
				C243.9,471.3,244.6,438.1,239.6,396.8L239.6,396.8z M221.3,370.1c10.5,4.1,20.6,13.9,22.1,26.2c5,41.7,4.3,75.3,0.4,100.7
				c-4.9,32-15,51.3-25.3,58.1c-6.4,4.2-15.2,4.6-22.4,2c-3.5-1.3-6.7-3.3-9.1-5.9c-2.5-2.7-4.2-6-4.8-9.9
				c-0.9-6.8,1.7-15.4,10.3-25.1c16.1-18.2,13-42,8.1-80c-1.9-14.3-4-30.5-5.4-49c-0.7-8.8,2.2-14.3,7-17.1c2.6-1.5,5.7-2.2,9-2.2
				C214.5,368,218,368.8,221.3,370.1z"/>
			<path fill-rule="evenodd" clip-rule="evenodd" fill="#F58220" d="M455.5,350.1c130.4,29.5,267.6-57.7,272.9-237.8
				c-97.6,46.2-239.3,97.4-290,216.9C440.2,339.8,445.9,346.8,455.5,350.1z"/>
			<path fill-rule="evenodd" clip-rule="evenodd" fill="#D46E28" d="M455.5,350.1c120.1,27.2,246.1-44.7,269.3-197.1
				c-22.1-8.6-52.3,10.3-67.8,45.9c-4.1,9.5-23.6,33.1-20.7,33.3c27.8,1.6,37.2-17.2,10,13.8c-34.3,39.1-85.3,65.2-137.7,66.5
				c-9.9,0.2,33.8-46.1,37.8-50.2c2-2.1-25.9,15.6-33.2,19.3c-42.1,21.8-42.2,24.6-16.9-7.9c10.5-13.6,44-48,43.8-47.9
				c-19.4,8.8-32.9,14.7-44,21.1c-24,23.4-44.1,50.5-57.7,82.4C440.2,339.8,445.9,346.8,455.5,350.1z"/>
			<path fill-rule="evenodd" clip-rule="evenodd" fill="#7F401B" d="M456,348.3c14.4,3.2,28.8,5.1,43.1,5.5
				c49.4,1.5,97.6-13.7,136.8-44.1c39.2-30.4,69.4-76.1,83-135.8c4.1-18.2,6.7-37.7,7.5-58.5c-10.9,5.1-22.3,10.3-33.9,15.6
				c-93.1,42.3-207.6,94.4-252.1,198.5c0.8,4.7,2.5,8.6,5.1,11.7C448.1,344.4,451.6,346.7,456,348.3L456,348.3z M499.1,357.6
				c-14.6-0.4-29.3-2.3-44-5.6l0,0c-0.1,0-0.1,0-0.2-0.1c-5.2-1.8-9.3-4.6-12.4-8.3c-3.1-3.7-5-8.4-6-14c-0.1-0.4,0-0.7,0.1-1.1
				c44.9-105.8,160.4-158.3,254.3-201c12.8-5.8,25.1-11.4,36.7-16.9l0,0c0.3-0.1,0.6-0.2,0.9-0.2c1.1,0,1.9,0.9,1.9,2
				c-0.7,22.2-3.3,43-7.7,62.3c-13.7,60.6-44.5,107-84.4,138C598.4,343.7,549.4,359.1,499.1,357.6z"/>
			<path fill-rule="evenodd" clip-rule="evenodd" fill="#FFFFFF" d="M704.6,223.9c14.1-31.8,22.7-69.1,23.9-111.5
				c-31.8,15-68.3,30.6-104.7,48.9c10.9,0.6,22.1-1,33.7-4.8c-22.9,34.1-31.1,56.9,30.9,35.9C662.9,224.4,684.6,237.9,704.6,223.9z"
				/>
			<path fill-rule="evenodd" clip-rule="evenodd" fill="#DBE0E3" d="M704.6,223.9c13.4-30.3,21.8-65.5,23.7-105.4
				c-6.4,20.6-21.4,36.1-37.5,51c-11.4,10.6-20.1,16.8-31.1,26.4c-2,1.8-2.8,3.1-2.8,4.4c7.4-0.7,17.7-3.2,31.4-7.8
				C662.9,224.4,684.6,237.9,704.6,223.9z"/>
			<path fill-rule="evenodd" clip-rule="evenodd" fill="#7F401B" d="M703,222.6c7-16,12.7-33.3,16.7-52c3.7-17.3,6-35.7,6.8-55.2
				c-10.9,5.1-22.2,10.3-33.9,15.6c-19.6,8.9-40.1,18.2-60.7,28.3c2.7-0.1,5.4-0.4,8.2-0.8c5.5-0.8,11.1-2.1,16.8-4
				c1-0.3,2.1,0.2,2.4,1.2c0.2,0.6,0.1,1.3-0.3,1.8c-11.1,16.5-18.7,30.2-16.1,36.7c2.4,6.3,15.2,6.3,44.9-3.8
				c1-0.3,2.1,0.2,2.4,1.2c0.2,0.6,0.1,1.3-0.3,1.8l0,0c-8.4,10.6-11.5,19-11.1,24.8c0.2,2.5,1,4.5,2.4,6c1.3,1.5,3.2,2.4,5.4,2.8
				C691.1,228.1,697.1,226.6,703,222.6L703,222.6z M723.4,171.4c-4.1,19.1-9.9,36.9-17.1,53.2l0,0c-0.1,0.3-0.4,0.6-0.7,0.8
				c-7,4.9-14.2,6.6-19.9,5.6c-3-0.6-5.6-1.9-7.5-4c-1.9-2.1-3.1-4.9-3.4-8.3c-0.4-5.7,1.9-13.4,8.3-22.6c-28.2,8.9-40.9,7.5-44-0.3
				c-2.9-7.4,3.5-20.4,13.7-35.9c-4.2,1.1-8.3,2-12.3,2.6c-5.7,0.8-11.4,1.1-16.9,0.8v0c-0.7,0-1.3-0.4-1.6-1.1
				c-0.5-0.9-0.1-2.1,0.9-2.6c23.2-11.6,46.2-22.1,68.1-32c12.7-5.8,25.1-11.4,36.7-16.9l0,0c0.3-0.1,0.6-0.2,0.9-0.2
				c1.1,0,1.9,0.9,1.9,2C729.8,133.4,727.4,153,723.4,171.4z"/>
			<path fill-rule="evenodd" clip-rule="evenodd" fill="#F58220" d="M196.9,265c-30.3,16-47.2,35.3-47.3,47.2
				c13.6,44.8,40,76.8,80.7,96c4.5,57.6,16.1,92.8-3.8,117.5c-25.6,31.7,6.1,43.8,22.8,32.9c16.5-10.7,37.7-55.9,31.5-135.5
				c37,7.9,76.7,8.9,130.3,3c18.6,24.4,38.9,71.1,14.3,105.6c-30,42,26.1,48.1,40.5,16.6c7.9-17.2,10.7-47,16.1-86.2
				c14.9-108.6,6-194.9-83.5-194.7C309,267.7,291.9,318,196.9,265z"/>
			<path fill-rule="evenodd" clip-rule="evenodd" fill="#D46E28" d="M281.5,423.2c36.7,7.8,76.1,8.8,129.1,2.9
				c-14-21.1-8.9-27.6-38.5-24c-27.5,3.4-66,6-91-7.3c-9.6-5.1-3.6,14.4-2.3,17.4C279.9,415.1,280.8,418.9,281.5,423.2L281.5,423.2z
				 M475.5,510.5c-0.4-5.4-0.8-10.6-1.3-15.4c-6.8-61-17.1-52.6-1.9-117.5c11.7-50-19.8-95.2-68-98.8c-18.4-1.4-76.5,7.1-116.5,9.5
				c32-4.2,59.6-20.7,110.9-20.9c89.4-0.2,98.4,86,83.5,194.7C479.6,480.4,477.7,496.6,475.5,510.5z"/>
			<path fill-rule="evenodd" clip-rule="evenodd" fill="#BC6128" d="M433.8,471.7c5.2,20,4.8,41.7-8.3,60
				c-30,42,26.1,48.1,40.5,16.6c1.5-3.2,2.8-6.9,4-11c-0.6-21.9-9.6-38.1-15.1-24c-0.3,0.9-8.1-63.8-19.8-45.9
				C434.7,468,434.3,469.5,433.8,471.7z"/>
			<path fill-rule="evenodd" clip-rule="evenodd" fill="#BC6128" d="M237.8,484.6c0.3,16.6-2.2,29.9-11.2,41.1
				c-25.6,31.7,6.1,43.8,22.8,32.9c7.3-4.7,15.5-16.2,21.8-34.3c-1.6-20.4-8.7-33-13.5-12.9c-0.7,3-5.6-104.6-15.7-46.8
				C240.5,473.3,239.2,479.6,237.8,484.6z"/>
			<path fill-rule="evenodd" clip-rule="evenodd" fill="#7F401B" d="M197.1,266.9c-13.8,7.4-25,15.7-32.6,23.4
				c-8.3,8.3-12.7,15.9-12.9,21.6c6.7,22,16.6,40.9,29.7,56.6c13.2,15.8,29.8,28.4,49.8,37.9c0.6,0.3,1,0.9,1.1,1.6h0
				c1.1,14,2.6,26.8,4,38.4c4.3,36.2,7.3,61.2-8.2,80.4c-7.3,9-9.7,16.3-9.1,21.7c0.2,1.4,0.5,2.7,1.1,3.9c0.6-1.9,1.4-3.8,2.4-5.8
				c1.6-3.3,3.8-6.6,6.5-10c0.5-0.6,1.4-0.7,2.1-0.2c0.6,0.5,0.7,1.4,0.2,2.1c-2.6,3.3-4.7,6.4-6.2,9.5c-1.3,2.6-2.2,5.1-2.8,7.6
				l0.1,0.1c1.9,1.9,4.4,3.2,7.2,4c0.5,0.2,1.1,0.3,1.6,0.4c0.9-3.2,2.1-6.1,3.6-8.8c1.7-3.2,3.9-6,6.4-8.5c0.6-0.6,1.5-0.6,2.1,0
				c0.6,0.6,0.6,1.5,0,2.1c-2.3,2.3-4.3,4.9-5.9,7.8c-1.3,2.4-2.4,5-3.2,7.8c4.9,0.3,10-0.8,14.2-3.5c9-5.8,19.5-22.5,25.9-50.1
				c6.7-28.9,8.2-66.2,3-96.3c-0.7-3.9-1.5-7.8-2.4-11.3c-0.3-1,0.4-2.1,1.4-2.3c1-0.3,2.1,0.4,2.3,1.4c1,3.6,1.8,7.7,2.5,11.6
				c0.7,4.2,1.3,8.3,1.6,11.6c18,3.8,36.6,5.9,57.2,6.4c20.2,0.5,42.4-0.6,67.6-3.3l-1.5-1.8c-7.5-9.2-16.1-19.7-25.8-33
				c-0.6-0.9-0.4-2.1,0.4-2.7c0.9-0.6,2.1-0.4,2.7,0.4c9.6,13.1,18.2,23.7,25.7,32.9c14.7,18.1,25.9,39.7,29,63
				c2.3,16.9-0.1,34.4-11,49.6c-7.9,11-9.6,19.3-7.6,24.8c1.3-5,4.8-9.8,10.6-14.4c0.6-0.5,1.6-0.4,2.1,0.2c0.5,0.6,0.4,1.6-0.2,2.1
				c-6.6,5.2-9.9,10.5-10,16c1.1,1.2,2.5,2.2,4.1,2.9c1.7,0.8,3.7,1.3,5.8,1.6c0.8-3.4,1.9-6.6,3.4-9.5c1.7-3.4,4-6.5,6.7-9.1
				c0.6-0.6,1.5-0.6,2.1,0c0.6,0.6,0.6,1.5,0,2.1c-2.5,2.4-4.5,5.2-6.1,8.4c-1.3,2.6-2.3,5.3-3,8.3c0.6,0,1.3,0,1.9-0.1
				c10.3-0.6,22.1-6.9,27.5-18.8c6.5-14.1,9.5-37.2,13.5-67.2c0.8-6,1.6-12.2,2.5-18.4c7.4-54,8.9-102.5-2.5-137.3
				c-11.3-34.3-35.3-55.3-79-55.2c-32.1,0.1-54.9,6.6-75.3,12.5C286.8,292.5,257.8,300.6,197.1,266.9L197.1,266.9z M147.7,312.8
				c0-6.7,4.9-16.1,14-25.2c8.1-8.1,19.7-16.6,34.3-24.3l0,0c0.6-0.3,1.2-0.3,1.8,0c60,33.5,88.5,25.3,124.5,14.9
				c20.7-6,43.7-12.6,76.3-12.7c45.7-0.1,70.9,21.9,82.7,57.8c11.7,35.4,10.2,84.4,2.7,139c-0.9,6.6-1.7,12.6-2.5,18.4
				c-4,30.3-7.1,53.6-13.8,68.3c-6.1,13.3-19.3,20.3-30.8,21c-4.6,0.3-8.9-0.4-12.5-2.1c-3.7-1.7-6.7-4.5-8.3-8.3
				c-2.8-6.7-1.3-16.4,7.8-29.1c10.2-14.3,12.5-30.8,10.3-46.8c-2.9-21.3-13.5-41.9-23.9-55.7c-26.4,2.9-49.5,4.1-70.5,3.6
				c-20.4-0.5-39-2.5-56.8-6.2c2.4,33.6-0.1,61-5,82.2c-6.7,28.6-17.9,46.1-27.5,52.4c-6.4,4.2-14.9,5.2-21.9,3.2
				c-3.4-1-6.5-2.6-8.9-5c-2.4-2.4-4-5.6-4.5-9.4c-0.7-6.4,1.9-14.6,9.9-24.6c14.5-18,11.6-42.3,7.4-77.6
				c-1.4-11.3-2.8-23.7-3.9-37.4c-20.1-9.7-36.8-22.5-50.1-38.4C164.8,354.8,154.6,335.4,147.7,312.8z"/>
			<path fill-rule="evenodd" clip-rule="evenodd" fill="#FFFFFF" d="M220.4,231.1c-5.6,17.8,11.3,38.8,25.8,50
				c5.4,4.2,5,15.5-22,8.4c16.3,35.3-4.4,80.4,6.7,113.6c2.8,8.4-8.6,3.9-17.5,1.7c-32.3-8-56.3-31.6-64.4-50.3
				c-1.6,6.3-0.1,13.1-3.4,14.6c-3.5,1.6-12-3-21.3-20.7c-7.5-14.4-14.4-62,1.1-71.9c10.7-6.9,68.5-40.8,78.6-40.8
				C209.3,235.4,223.9,228.7,220.4,231.1z"/>
			<path fill-rule="evenodd" clip-rule="evenodd" fill="#DBE0E3" d="M219.4,236.1c-0.8,8.9,3.2,18.3,9.1,26.6
				c-1.2,3.1-3.2,6.1-5.9,8.9c-21.1,21.5-38.2,53.4-27.3,84.3c12,34-54.8-31.8-56-35.2c-2.6-0.2-5.7,11.5-5.6,13.8
				c0.9,26.3-5.5,19.8-12.6,4.9c-5.8-19.4-8.7-54.9,4.4-63.3c10.7-6.9,68.5-40.8,78.6-40.8c2.2,0,6-1.2,9.5-2.4
				C215.7,233.9,217.6,235,219.4,236.1z"/>
			<path fill-rule="evenodd" clip-rule="evenodd" fill="#7F401B" d="M222,232.2c-2,7.1-0.2,14.8,3.6,22.2c5.1,9.9,13.8,19,21.7,25.2
				c1.8,1.4,3.1,3.4,3.4,5.5c0.2,1.5,0,3-0.9,4.4c-0.8,1.3-2.2,2.4-4.2,3.2c-3.5,1.3-9.3,1.5-18.2-0.4c7.2,18.6,5.4,39.4,3.5,59.7
				c-1.6,18-3.2,35.6,1.8,50.5c1.4,4.1,0.2,6.2-2.4,7.1c-3,1-8.1-0.4-13.1-1.8c-1.4-0.4-2.8-0.8-4.2-1.1
				c-15.1-3.7-28.5-10.8-39.3-19.3c-10.5-8.2-18.6-17.7-23.6-26.5l-0.1,0.9c-0.3,4.3-0.5,7.8-3.6,9.1c-2.6,1.2-7,0.1-12.1-4.9
				c-3.5-3.4-7.5-8.8-11.7-16.7c-4.4-8.5-8.7-28.3-8.4-45.4c0.2-12.9,3-24.5,10.2-29.1c6.7-4.3,31.7-19.1,52.1-29.7
				c12.5-6.5,23.4-11.4,27.6-11.4c2.7,0,8.6-2.2,12.5-3.6c3-1.1,5-1.8,6-0.4l0,0l0,0C223.1,230.5,223,231.3,222,232.2L222,232.2z
				 M222.2,256.1c-3.8-7.3-5.8-15.1-4.4-22.5c-4.1,1.5-10.4,3.8-13.7,3.8c-3.5,0-13.8,4.7-25.8,11c-20.2,10.5-45.1,25.2-51.8,29.5
				c-5.9,3.8-8.2,14.2-8.4,25.9c-0.3,16.5,3.8,35.5,8,43.5c3.9,7.5,7.7,12.6,11,15.7c3.8,3.7,6.5,4.7,7.9,4.1c1-0.4,1.1-2.9,1.3-5.9
				c0.2-2.3,0.3-4.8,1-7.3c0.1-0.6,0.5-1.2,1.1-1.4c1-0.4,2.1,0,2.5,1c4.2,9.8,13,21.1,25.2,30.7c10.4,8.1,23.2,15,37.8,18.6
				c1.4,0.3,2.8,0.7,4.3,1.1c4.5,1.2,9,2.5,10.9,1.9c0.4-0.1,0.5-0.8,0-2.2c-5.3-15.6-3.6-33.6-2-52c1.9-21.1,3.9-42.7-4.7-61.3h0
				c-0.2-0.4-0.2-0.8-0.1-1.3c0.3-1,1.3-1.6,2.3-1.4c10.2,2.7,16.3,2.7,19.6,1.4c1.2-0.4,1.9-1,2.3-1.6c0.3-0.5,0.4-1.1,0.3-1.8
				c-0.2-1.1-0.9-2.3-1.9-3C236.7,276.2,227.6,266.6,222.2,256.1z"/>
		</g>
		<path fill-rule="evenodd" clip-rule="evenodd" fill="#F58220" d="M165.4,90.7c-33.9,23.1-61.7,20-80.9,14.1c0.5-6.5,0.5-17,1.7-23
			C92,51,106.6,27.1,130,10.3c13.4,8.2,27.4,30.9,32.5,58C163,70.8,165,87.2,165.4,90.7z"/>
		<path fill-rule="evenodd" clip-rule="evenodd" fill="#BC6128" d="M88.9,70.3c7-25.3,20.7-45.3,41.1-60c12.9,7.9,26.5,29.3,32,55.2
			c-7.7,4.5-19.4,0.6-25.9-14.6c-8.7-20.2-22.9,1.8-29,11.3C95.9,79.8,90.3,78.1,88.9,70.3z"/>
		<path fill-rule="evenodd" clip-rule="evenodd" fill="#7F401B" d="M166.4,92.3c-17.2,11.7-32.9,16.8-46.8,18.2
			c-13.9,1.4-25.9-0.9-35.6-3.9c-0.8-0.3-1.4-1.1-1.3-1.9h0c0.2-2.1,0.3-4.5,0.4-7c0.3-5.7,0.5-12,1.3-16.2
			c3-15.7,8.1-29.6,15.5-41.7c7.4-12.1,17.1-22.5,29-31c0.6-0.5,1.5-0.5,2.1,0c7.2,4.4,14.5,12.8,20.6,23.7
			c5.6,10,10.2,22.3,12.7,35.5c0.2,1.1,0.8,5.4,1.4,9.9c0.7,5.1,1.3,10.7,1.5,12.6C167.3,91.3,167,91.9,166.4,92.3L166.4,92.3
			L166.4,92.3z M119.2,106.8c13.1-1.3,27.9-6.1,44.2-17c-0.3-2.5-0.8-7.1-1.4-11.4c-0.6-4.4-1.1-8.6-1.3-9.7
			c-2.4-12.9-6.9-24.7-12.3-34.4c-5.5-9.8-12-17.5-18.3-21.7c-11,8.1-20,17.9-27,29.2C95.9,53.5,90.9,67,88,82.2
			c-0.7,4-1,10.1-1.3,15.7c-0.1,2-0.2,3.9-0.3,5.6C95.6,106.2,106.6,108.1,119.2,106.8z"/>
		<path fill-rule="evenodd" clip-rule="evenodd" fill="#FBB166" d="M145.7,114.1c9.3-29.3,3.2-58-18.5-83.7
			c-20.6,21.7-24.4,48.4-25.4,66.2C113.2,77.1,135.9,81.7,145.7,114.1z"/>
		<path fill-rule="evenodd" clip-rule="evenodd" fill="#E29B4A" d="M145.7,114.1c4.6-14.6,5.5-29,2.4-43c-19-32.5-29.4,2.1-30.5-0.3
			c-3.4-7.2-6.6-9.3-9.3-9.1c-4.5,12.8-6,25.3-6.5,35C113.2,77.1,135.9,81.7,145.7,114.1z"/>
		<path fill-rule="evenodd" clip-rule="evenodd" fill="#7F401B" d="M145.6,109.4c3.5-13,3.8-25.8,1.1-38.3
			c-2.9-13.3-9.4-26.2-19.5-38.5c-9.5,10.4-15.2,21.9-18.6,32.9c-2.9,9.4-4.3,18.4-5,26.2c1.9-2.3,4-4.1,6.2-5.4
			c3.9-2.3,8.3-3.1,12.6-2.3c4.3,0.8,8.6,3.2,12.5,7.2C139,95.4,142.7,101.4,145.6,109.4L145.6,109.4z M149.5,70.5
			c3.2,14.3,2.4,29.1-2.4,44c-0.1,0.5-0.5,0.9-1,1c-0.7,0.2-1.5-0.2-1.8-1c-2.9-9.6-7-16.7-11.5-21.4c-3.5-3.6-7.3-5.7-11-6.4
			c-3.7-0.7-7.3,0-10.7,2c-3,1.8-5.9,4.7-8.2,8.7c-0.3,0.5-0.8,0.7-1.3,0.7c-0.8,0-1.4-0.7-1.3-1.5c0.5-9,1.8-20.2,5.5-32
			c3.7-11.8,9.9-24.1,20.3-35.1c0-0.1,0.1-0.1,0.1-0.1c0.6-0.5,1.5-0.4,2,0.2C139.3,42.5,146.3,56.2,149.5,70.5z"/>
		<path fill-rule="evenodd" clip-rule="evenodd" fill="#F58220" d="M224.6,110.9c26.3-8.7,57-9.2,92-1.5
			c-9.6,40.7-33.5,70.3-71.6,88.9c-2.5,8.9-4.2,21.6-4,38.3c0.4,35.5-17.4,47-18.2,34.4c-10.5,28.1-37.8,27.9-36.2,20.6
			c-8.4,6.7-25.7,6.8-20.4-2C126,298.5,88,295,43.5,251.9c-26.8-17.3-36.9-42.4-19.2-68.7c-11.1,6.1-9.2-5.6,12.1-20.8
			c9.4-6.7,17.3-14.6,22.4-25.7C91.2,65.7,166.9,62.4,224.6,110.9z"/>
		<path fill-rule="evenodd" clip-rule="evenodd" fill="#FFFFFF" d="M25.6,236.2c-12.3-15.3-14.2-33.8-1.3-53
			c-9.4,5.2-10-3.1,3.7-14.2c10.8-8.7,21,2.6,24.6,12.2c0.4-12.5,23.7,9,23,29.2C54.7,223.6,38,232.2,25.6,236.2z"/>
		<path fill-rule="evenodd" clip-rule="evenodd" fill="#D46E28" d="M291.7,161.7c-12,15-27.6,27.1-46.8,36.5
			c-2.5,8.9-4.2,21.6-4,38.3c0.4,35.5-17.4,47-18.2,34.4c-10.5,28.1-37.8,27.9-36.2,20.6c-8.4,6.7-25.7,6.8-20.4-2
			c-6.2,1.4-12.4,2.5-18.6,3.1c-2.8-8.9-4.4-17.2-4.5-23.4c-0.1-4.1-4-36.4-4-36.5c-7.6-17.9,39.8-20.8,57-15.6
			c26.3,7.9,18,37.9,35.9-6.3c10.9-27.1,9.5-19.9,39.4-33.5C276.4,175.3,284.2,167.7,291.7,161.7L291.7,161.7z M175.5,142.2
			c-5.8-0.8-9.8,6.3-1.7,12.5c3,2.3,19.9,15,18,2.3C190.5,147.7,179.5,142.8,175.5,142.2L175.5,142.2z M87.9,121.5
			c-15,12.4,14.5,14.4,16.8,7.7C110.7,112.5,87.9,121.5,87.9,121.5z"/>
		<path fill-rule="evenodd" clip-rule="evenodd" fill="#BC6128" d="M231.2,108.9c24.8-6.7,53.3-6.6,85.4,0.5
			c-7.3,30.7-22.7,55.1-46.2,73.2c-0.8-1.9-1.3-4.2-1.2-6.9c0.6-17.9,19.2-36.8,18.8-47.1c-0.5-0.2-3.8-4.9-7.7-5.1
			C249.4,122.5,235.9,115.6,231.2,108.9z"/>
		<path fill-rule="evenodd" clip-rule="evenodd" fill="#FFFFFF" d="M199.7,294.7c-7.7,2.5-14,0.5-13.2-3.1c-8.4,6.7-25.7,6.8-20.4-2
			C126,298.5,88,295,43.5,251.9c-13.2-8.5-22.3-18.9-26.1-30.4c1.1-0.9,2.2-1.8,3.3-2.8c37.5,20.2,84.4,19.5,114.9,2
			c82.4-14.9,84.5,34.2,71.2,21.4c13,18.7,6,38.5,2.1,29.4C210.7,284,205.6,292.7,199.7,294.7z"/>
		<path fill-rule="evenodd" clip-rule="evenodd" fill="#DBE0E3" d="M199.7,294.7c-7.7,2.5-14,0.5-13.2-3.1c-8.4,6.7-25.7,6.8-20.4-2
			c-33.3,7.4-65,6.2-100.2-18.9c-5.4-11.3,2.8-4.3,28,0.3c48.2,8.6,44.6,10.5,90.7-5.9c-1.3,3.8-4.2,7.2-2.6,11.6
			c15.5,3.2,15.8-21.8,14.9,0.7c-0.3,7,6.4,2.2,12.3-3.3C210,285.2,205.2,292.8,199.7,294.7L199.7,294.7z M213.9,269.4
			c-0.8,3.6-2.4,5.3-3.8,3.9C211.4,272,212.8,270.6,213.9,269.4z"/>
		<path fill-rule="evenodd" clip-rule="evenodd" fill="#7F401B" d="M225,108.8c13.1-4.2,27.2-6.4,42.3-6.7c15.5-0.3,32,1.6,49.7,5.4
			c1,0.2,1.6,1.2,1.4,2.2l0,0.1c-4.9,20.6-13.4,38.4-25.5,53.4c-12,14.8-27.4,26.9-46.4,36.3c-1.2,4.4-2.2,9.8-2.9,16
			c-0.6,6.1-1,13.1-0.9,20.9c0.2,19.2-4.8,31.6-9.8,37.3c-1.5,1.7-3,2.8-4.4,3.4c-1.7,0.7-3.3,0.7-4.7-0.1c-0.5-0.3-0.9-0.6-1.3-1.1
			c-6.1,12.7-15.8,18.8-23.6,20.8c-2.6,0.7-5,0.9-7.1,0.7c-2.2-0.2-4.1-0.7-5.3-1.7c-0.5-0.4-0.9-0.8-1.2-1.2
			c-4.3,2.6-9.8,3.8-14.1,3.7c-1.8-0.1-3.5-0.4-4.7-1c-1.6-0.7-2.6-1.8-3.1-3.4c-0.2-0.6-0.2-1.2-0.1-1.8c-19.2,3.9-38,4.9-57.3-0.1
			c-20.3-5.2-41.2-17-63.6-38.7c-0.4-0.3-0.8-0.5-1.2-0.8C28,243.7,19,233.1,15.4,221.3c-3.3-10.8-2.1-22.6,4.6-34.6
			c-0.6,0-1,0-1.5-0.1c-1.6-0.3-2.5-1.3-2.7-2.9c-0.2-1.1,0.1-2.4,0.8-4c2-4.3,8-11.2,18.7-18.9c4.6-3.3,8.8-6.9,12.5-10.9
			c3.7-4.1,6.8-8.7,9.3-14.1c4.7-10.4,10.4-19.3,16.8-26.9c14.9-17.7,33.7-27.9,54.1-31.2c20.3-3.4,42.2,0.1,63.3,9.7
			C202.8,92.7,214.2,99.9,225,108.8L225,108.8z M267.3,105.8c-15.1,0.2-29.2,2.5-42.2,6.8l0,0c-0.6,0.2-1.2,0.1-1.8-0.3
			c-10.7-9-22.1-16.2-33.7-21.5c-20.5-9.3-41.6-12.7-61.2-9.4c-19.5,3.2-37.6,13-51.8,30c-6.2,7.3-11.7,16-16.3,26.1
			c-2.6,5.8-6,10.7-9.9,15c-3.9,4.3-8.3,8-13.1,11.5c-10.2,7.3-15.7,13.6-17.5,17.4c-0.3,0.8-0.5,1.3-0.5,1.7
			c0.7,0.1,2.1-0.4,3.9-1.4l0,0c0.6-0.3,1.3-0.3,1.9,0.1c0.8,0.6,1.1,1.7,0.5,2.5c-0.2,0.3-0.4,0.6-0.6,0.9
			c-7.9,12.2-9.6,24.2-6.3,35c3.4,11,11.9,21,24.2,29.3c0.4,0.3,0.9,0.6,1.3,0.9c0.1,0.1,0.2,0.2,0.3,0.3
			c22,21.3,42.3,32.8,62.1,37.9c19.7,5.1,38.9,3.8,58.7-0.6c0.5-0.1,1-0.1,1.5,0.2c0.9,0.5,1.2,1.7,0.6,2.5
			c-0.6,1.1-0.8,1.8-0.7,2.3c0.1,0.4,0.5,0.7,1.1,1c0.8,0.4,2,0.6,3.3,0.7c4.3,0.2,10.1-1.4,13.9-4.4c0.4-0.4,1-0.5,1.6-0.4
			c1,0.2,1.6,1.2,1.4,2.2c-0.1,0.3,0.1,0.6,0.5,0.9c0.7,0.5,1.9,0.8,3.4,1c1.7,0.1,3.7-0.1,5.9-0.6c7.8-2,17.6-8.6,22.9-22.8
			c0.2-0.7,0.9-1.2,1.6-1.3c1-0.1,1.9,0.7,1.9,1.7c0.1,1.7,0.5,2.7,1.1,3.1c0.3,0.2,0.8,0.2,1.5-0.1c0.9-0.4,2-1.2,3.1-2.4
			c4.5-5.1,9.1-16.7,8.9-34.9c-0.1-8,0.3-15.1,0.9-21.3c0.7-6.9,1.8-12.7,3.2-17.4c0.1-0.5,0.5-0.9,1-1.2
			c18.8-9.2,34.1-21.1,45.9-35.6c11.4-14.1,19.5-30.9,24.3-50.2C297.6,107.2,282,105.6,267.3,105.8z"/>
		<path fill-rule="evenodd" clip-rule="evenodd" fill="#FFFFFF" d="M87.3,159.7c6.5,2.9,9.7,12,6.4,20c-0.8,1.6-1.7,3-2.7,4.5
			c-4.2,5-10.7,6.6-16.1,4.2c-6.7-2.9-10.4-10.9-6.8-19C71.7,161.3,80.7,156.8,87.3,159.7z"/>
		<path fill-rule="evenodd" clip-rule="evenodd" fill="#7F401B" d="M87.9,158.4c3.7,1.6,6.4,5,7.7,9c1.3,3.9,1.2,8.5-0.6,12.8
			c0,0,0,0.1-0.1,0.1l0,0c-0.4,0.8-0.9,1.6-1.3,2.3c-0.5,0.8-0.9,1.5-1.4,2.2c0,0-0.1,0.1-0.1,0.1v0c-2.3,2.7-5.2,4.5-8.2,5.3
			c-3.1,0.8-6.5,0.6-9.5-0.7c-3.8-1.7-6.7-4.8-8.1-8.7c-1.3-3.6-1.3-7.9,0.6-12.1c1.9-4.3,5.3-7.7,9.1-9.6
			C79.8,157.2,84.2,156.8,87.9,158.4L87.9,158.4z M92.9,168.3c-1.1-3.3-3.2-6-6.1-7.3c-2.9-1.3-6.4-0.9-9.6,0.7
			c-3.2,1.6-6.1,4.5-7.7,8.2c-1.6,3.5-1.6,7.1-0.5,10c1.1,3.2,3.5,5.7,6.6,7.1c2.4,1.1,5.1,1.2,7.6,0.6c2.5-0.7,4.9-2.1,6.7-4.3
			c0.5-0.7,0.9-1.4,1.3-2c0.4-0.7,0.8-1.4,1.2-2.2C93.9,175.4,94,171.6,92.9,168.3z"/>
		<path fill-rule="evenodd" clip-rule="evenodd" fill="#231F20" d="M88.4,166.2c4.5,2,6.9,7.6,5.7,12.9c-1.2,2.2-2.4,4.3-3.8,6.2
			c-3,2.6-7.2,3.2-10.8,1.6c-5.1-2.2-8-8.1-5.4-13.9C76.6,167.1,83.3,164,88.4,166.2z"/>
		<path fill-rule="evenodd" clip-rule="evenodd" fill="#FFFFFF" d="M82,165.5c2,0.9,3,3.3,2.1,5.3c-0.9,2-3.3,3-5.3,2.1
			c-2-0.9-3-3.3-2.1-5.3C77.6,165.5,80,164.6,82,165.5z"/>
		<path fill-rule="evenodd" clip-rule="evenodd" fill="#F58220" d="M99.3,165.8c6.8-23.6,39.7-2.1,39.3,39.6
			c-0.3,25.4-21.9,42.1-43,52.8c-19.6,9.9-42.3,7.7-57.7-3.9c-22.7-6-27.2-17.9-20.4-45.1C57.3,212.1,88.5,203.3,99.3,165.8z"/>
		<path fill-rule="evenodd" clip-rule="evenodd" fill="#FFFFFF" d="M135.6,220.8c-3.4,17.4-22.3,31.7-38.9,40.1
			c-9.7,4.9-21.4,4.5-31.6,3.1c-10.4-1.4-19.5-3.8-27.2-9.6c-18.2-4.8-24.7-13.4-23.1-30.6c1.9-1.6,3.9-3.3,5.9-4.9
			C86.6,254.3,84.5,228,135.6,220.8z"/>
		<path fill-rule="evenodd" clip-rule="evenodd" fill="#7F401B" d="M98.4,162.7c0.7-2.3,4.1-1.5,3.3,1.6c-4,17.3-15.5,32.5-31.7,40
			c-14.1,6.5-31.6,8.1-51.1,6.9c-3,12.4-3.5,21.3-0.7,27.8c2.5,5.8,7.8,9.7,16.3,12.5c-1.8-2.8-3-5.5-4-8.2c-1.3-3.7-1.9-7.5-2.4-12
			c-0.1-0.8,0.5-1.5,1.2-1.6c0.8-0.1,1.5,0.5,1.6,1.2c0.5,4.4,1.1,8,2.3,11.4c1.1,3.4,2.9,6.7,5.7,10.5
			c24.4,18.3,76.3,10.4,97.6-2.9c0.1-0.1,0.3-0.2,0.4-0.2c-0.9-1.2-2-2.3-3.4-3.2c-0.6-0.4-0.8-1.3-0.4-2c0.4-0.6,1.3-0.8,2-0.4
			c4.1,2.9,6.5,6.6,7,11.3c0.1,0.8-0.5,1.5-1.2,1.6c-0.8,0.1-1.5-0.5-1.6-1.2c-0.1-1.2-0.4-2.3-0.8-3.3c-0.2,0.2-0.4,0.4-0.7,0.5
			c-23.7,15.6-76.3,20.6-100.6,2.6c-11.7-3.2-19.1-7.6-22.5-15.3c-3.3-7.5-2.7-17.7,0.8-31.6c0.2-0.9,1.1-1.5,2-1.4
			c19.6,1.4,37-0.1,50.8-6.5C88.6,191.7,93.1,180.4,98.4,162.7L98.4,162.7z M21,237.2c-0.7,0-1.3,0.7-1.3,1.4c0,0.7,0.7,1.3,1.4,1.3
			c0.7,0,1.3-0.7,1.3-1.4C22.4,237.8,21.7,237.2,21,237.2L21,237.2z M26.4,243.5c-0.7,0-1.3,0.7-1.3,1.4c0,0.7,0.7,1.3,1.4,1.3
			c0.7,0,1.3-0.7,1.3-1.4C27.7,244.1,27.1,243.5,26.4,243.5L26.4,243.5z M45.6,239.1c-0.7,0-1.3,0.7-1.3,1.4c0,0.7,0.7,1.3,1.4,1.3
			c0.7,0,1.3-0.7,1.3-1.4C47,239.6,46.3,239.1,45.6,239.1L45.6,239.1z M44.1,247.2c-0.7,0-1.3,0.7-1.3,1.4c0,0.7,0.7,1.3,1.4,1.3
			c0.7,0,1.3-0.7,1.3-1.4C45.4,247.7,44.8,247.2,44.1,247.2L44.1,247.2z M53.2,244.9c-0.7,0-1.3,0.7-1.3,1.4c0,0.7,0.7,1.3,1.4,1.3
			c0.7,0,1.3-0.7,1.3-1.4C54.6,245.4,53.9,244.9,53.2,244.9z"/>
		<path fill-rule="evenodd" clip-rule="evenodd" fill="#FBB166" d="M256.7,153.7c-7.3,9-14.3,17-20.9,23.9
			c29.6-6.8,50.5-26.5,62.7-59c-27.5-2.5-53.7,2.2-69.7,10c9.4,0.1,17.4,3.2,22.7,4.9c-7.8,2.4-14.5,4.6-20.1,6.8
			c11.5,2.5,21.5,2.6,30,0.3c-7.4,8.7-15.9,14.6-25.5,17.7C243.7,158,250.5,156.4,256.7,153.7z"/>
		<path fill-rule="evenodd" clip-rule="evenodd" fill="#E29B4A" d="M256.7,153.7c-7.3,9-14.3,17-20.9,23.9
			c14.8-3.4,27.4-10,37.9-19.9c7.2-9.6,10.7-21.2-3.9-22.1c-16.3-1,6.9-1.6-6.7-7.5c-5.4-2.3-14.6-3.7-23.5-3.8
			c-4,1.3-7.6,2.7-10.8,4.3c9.4,0.1,17.4,3.2,22.7,4.9c-7.8,2.4-14.5,4.6-20.1,6.8c11.5,2.5,21.5,2.6,30,0.3
			c-7.4,8.7-15.9,14.6-25.5,17.7C243.7,158,250.5,156.4,256.7,153.7z"/>
		<g>
			<path fill-rule="evenodd" clip-rule="evenodd" fill="#7F401B" d="M257.8,154.7c-3.6,4.5-7.2,8.7-10.7,12.7
				c-2.3,2.7-4.6,5.2-6.9,7.6c12.5-3.6,23.4-9.7,32.5-18.3c9.9-9.3,17.9-21.6,23.8-36.9c-12.4-1-24.5-0.5-35.5,1.1
				c-10,1.4-19,3.8-26.4,6.7c6.1,0.8,11.3,2.5,15.4,3.9c0.9,0.3,1.7,0.6,2,0.7c0.7,0.2,1.2,1,0.9,1.8c-0.2,0.5-0.5,0.8-1,0.9
				c-3.8,1.2-7.4,2.3-10.8,3.4c-1.5,0.5-3,1-4.4,1.5c3.8,0.6,7.4,0.9,10.9,1c4.9,0,9.4-0.5,13.5-1.6c0.8-0.2,1.5,0.2,1.7,1
				c0.1,0.5,0,1-0.3,1.3c-3.8,4.4-7.8,8.1-12.1,11.1c-1.5,1.1-3.1,2-4.7,2.9c0.3-0.1,0.6-0.1,0.9-0.2c3.3-0.8,6.5-1.8,9.6-3.1
				c0.7-0.3,1.6,0,1.9,0.7C258.3,153.7,258.1,154.3,257.8,154.7L257.8,154.7z M245,165.6c2.4-2.8,4.9-5.7,7.4-8.7
				c-1.7,0.5-3.4,1-5.1,1.4c-3.5,0.8-7.2,1.3-11,1.5c-0.6,0.1-1.3-0.3-1.5-1c-0.2-0.7,0.2-1.5,0.9-1.8c4.6-1.5,9-3.7,13.2-6.6
				c3.1-2.1,6-4.6,8.7-7.5c-3.1,0.5-6.4,0.8-9.9,0.7c-5.1,0-10.6-0.7-16.4-1.9v0c-0.5-0.1-0.8-0.4-1-0.9c-0.3-0.7,0.1-1.5,0.8-1.8
				c2.8-1.1,5.9-2.2,9.3-3.3c2.1-0.7,4.3-1.4,6.6-2.2c-4.9-1.6-11.1-3.3-18-3.4c-0.6,0-1.1-0.3-1.4-0.8c-0.3-0.7,0-1.6,0.7-1.9
				c8.5-4.1,19.7-7.4,32.4-9.2c11.7-1.7,24.7-2.1,38-0.9c0.1,0,0.3,0,0.4,0.1c0.7,0.3,1.1,1.1,0.8,1.8
				c-6.2,16.5-14.6,29.7-25.2,39.7c-10.6,10-23.5,16.7-38.5,20.2v0c-0.4,0.1-0.9,0-1.3-0.4c-0.6-0.5-0.6-1.4,0-2
				C238.1,173.3,241.5,169.6,245,165.6L245,165.6z M257.8,154.7c-0.1,0.1-0.3,0.3-0.5,0.3L257.8,154.7z"/>
		</g>
		<path fill-rule="evenodd" clip-rule="evenodd" fill="#424143" d="M28.9,202.3c12.7,1.4,19.6,9.2,18.7,18.1
			c-1,8.9-9.5,15.5-22.2,14C12.6,233,4.9,222.7,5.9,213.8C6.9,204.9,16.2,200.8,28.9,202.3z"/>
		<g>
			<path fill-rule="evenodd" clip-rule="evenodd" fill="#231F20" d="M29,200.4c0.1,0,0.2,0,0.2,0c6.7,0.8,12,3.3,15.4,6.8
				c3.6,3.6,5.2,8.3,4.7,13.2c0,0.1,0,0.2,0,0.3c-0.6,4.9-3.2,9.2-7.5,12.1c-4.2,2.8-9.9,4.2-16.6,3.5c-0.1,0-0.2,0-0.2,0
				c-6.8-0.8-12.2-3.9-15.9-8.1c-3.7-4.2-5.5-9.5-5-14.4c0-0.1,0-0.2,0-0.3c0.6-5.1,3.5-8.7,8.1-10.9
				C16.5,200.4,22.3,199.7,29,200.4L29,200.4z M42.1,209.8c-2.9-3-7.4-5.1-13.4-5.7l0,0c-6-0.7-11.2-0.1-14.9,1.7
				c-3.4,1.7-5.6,4.4-6.1,8.1c0,0.1,0,0.1,0,0.2c-0.4,3.9,1.1,8.2,4.1,11.6c3.1,3.5,7.8,6.2,13.7,6.9h0l0,0
				c5.9,0.7,10.8-0.5,14.3-2.9c3.4-2.3,5.5-5.7,5.9-9.6v0C46.2,216.3,44.9,212.6,42.1,209.8L42.1,209.8z M28.7,204.1L28.7,204.1
				L28.7,204.1z"/>
		</g>
		<path fill-rule="evenodd" clip-rule="evenodd" fill="#595A5C" d="M26.1,208.2c5,0.3,7.6,2.1,7.2,4.2c-0.4,2.1-3.8,3.8-8.8,3.5
			c-5-0.3-7.9-2.7-7.4-4.8C17.5,209,21.2,208,26.1,208.2z"/>
		<path fill-rule="evenodd" clip-rule="evenodd" fill="#FBB166" d="M188.6,156.3c3.1,1.9,4.7-0.5,4.1-3.7c-1.1-6.3-7.9-15.4-16-13.4
			c-5,1.2-5.7,7.5,1.8,11.4C183.2,153.2,186.4,155,188.6,156.3z"/>
		<path fill-rule="evenodd" clip-rule="evenodd" fill="#7F401B" d="M189.3,155.1c0.5,0.3,0.9,0.4,1.2,0.5c0.2,0,0.3,0,0.4-0.1
			c0.1-0.1,0.3-0.3,0.3-0.6c0.1-0.5,0.2-1.2,0-2c0-0.3-0.1-0.5-0.2-0.7c-0.7-2.8-2.5-6-5-8.4c-2.4-2.3-5.4-3.8-8.6-3.2
			c-0.2,0-0.4,0.1-0.5,0.1c-0.9,0.2-1.5,0.6-2,1.1c-0.4,0.5-0.7,1.1-0.7,1.7c0,0.7,0.2,1.5,0.7,2.3c0.7,1.3,2.1,2.5,4.2,3.6
			c2.3,1.2,4.3,2.3,6,3.3C186.8,153.7,188.2,154.5,189.3,155.1L189.3,155.1z M190.3,158.4c-0.7-0.1-1.5-0.3-2.4-0.9
			c-1.1-0.6-2.4-1.4-4.1-2.3c-1.6-0.9-3.6-2-6-3.2c-2.6-1.4-4.3-3-5.3-4.7c-0.8-1.3-1.1-2.7-1-4c0.1-1.3,0.6-2.5,1.5-3.5
			c0.8-0.9,2-1.6,3.4-1.9c0.3-0.1,0.5-0.1,0.7-0.2c4.2-0.7,8.1,1.1,11.1,4c2.9,2.8,4.9,6.5,5.7,9.8c0.1,0.3,0.2,0.6,0.2,0.9
			c0.2,1.2,0.2,2.3-0.1,3.2c-0.2,0.8-0.7,1.6-1.3,2C192.1,158.2,191.2,158.5,190.3,158.4z"/>
		<path fill-rule="evenodd" clip-rule="evenodd" fill="#FBB166" d="M87.9,126.4c-3.3,0.1-3.5-2.4-1.7-4.7c3.6-4.5,12.9-8.7,18.4-3.7
			c3.4,3.1,1.3,8.4-6.4,8.3C93.5,126.3,90.1,126.3,87.9,126.4z"/>
		<path fill-rule="evenodd" clip-rule="evenodd" fill="#7F401B" d="M87.9,127.8c-0.9,0-1.7-0.1-2.4-0.4c-0.8-0.4-1.4-1-1.7-1.7
			c-0.3-0.7-0.3-1.4-0.1-2.2c0.2-0.9,0.7-1.8,1.3-2.6c0.2-0.2,0.4-0.4,0.6-0.7c2.1-2.2,5.3-4.3,8.8-5.3c3.6-1,7.5-0.8,10.6,1.7
			c0.2,0.1,0.4,0.3,0.5,0.4c1,0.9,1.6,2,1.9,3.1c0.3,1.2,0.2,2.4-0.3,3.5c-0.5,1.1-1.4,2-2.6,2.7c-1.5,0.9-3.6,1.5-6.3,1.4
			c-2.4,0-4.4,0-6.1,0C90.5,127.7,89.1,127.8,87.9,127.8L87.9,127.8z M86.7,124.9c0.2,0.1,0.6,0.2,1.1,0.1c1.1,0,2.5-0.1,4.3-0.1
			c1.7,0,3.8,0,6.2,0c2.1,0,3.7-0.4,4.8-1c0.7-0.4,1.2-0.9,1.5-1.5c0.2-0.5,0.3-1.1,0.2-1.6c-0.1-0.6-0.5-1.2-1.1-1.7
			c-0.1-0.1-0.3-0.2-0.4-0.3c-2.3-1.8-5.2-1.9-8.1-1.2c-3,0.8-5.8,2.6-7.5,4.5c-0.2,0.2-0.3,0.3-0.4,0.5c-0.4,0.5-0.7,1-0.8,1.5
			c-0.1,0.2-0.1,0.4,0,0.6C86.5,124.7,86.6,124.8,86.7,124.9z"/>
		<path fill-rule="evenodd" clip-rule="evenodd" fill="#FFFFFF" d="M167.9,184.6c8.2,2.5,13.4,12.6,10.5,22.1
			c-2.8,9.5-12.1,14.1-20.4,11.6c-8.2-2.5-13.8-11-11-20.5C149.9,188.2,159.6,182.1,167.9,184.6z"/>
		<path fill-rule="evenodd" clip-rule="evenodd" fill="#231F20" d="M170.2,190.8c6.2,1.9,10.1,9.6,8,16.8
			c-2.2,7.2-9.2,10.6-15.4,8.8c-6.2-1.9-10.5-8.3-8.3-15.5C156.5,193.6,163.9,188.9,170.2,190.8z"/>
		<path fill-rule="evenodd" clip-rule="evenodd" fill="#FFFFFF" d="M164.5,191.6c2.5,0.7,3.9,3.3,3.1,5.8c-0.7,2.5-3.3,3.9-5.8,3.1
			c-2.5-0.7-3.9-3.3-3.1-5.8C159.4,192.2,162,190.8,164.5,191.6z"/>
		<path fill-rule="evenodd" clip-rule="evenodd" fill="#231F20" d="M12.5,217c2.2-0.1,7.9,4.1,15.1,2.9c1.7-0.3,10.1-1.8,11-1.4
			c3.2,1.3,1.3,4.5-1.4,5.9c-7.1,3.7-16.3,3.9-22.6-1.4c-1.1-0.9-4.1-4.3-2.7-5.7C12.1,217.2,12.3,217,12.5,217z"/>
		<path fill-rule="evenodd" clip-rule="evenodd" fill="#7F401B" d="M168.3,183.2c4.5,1.4,8.1,4.8,10.3,9.2c2.1,4.3,2.7,9.6,1.2,14.7
			l0,0c-1.5,5-4.7,8.7-8.5,11c-4.1,2.3-9,3-13.6,1.6c-4.6-1.4-8.5-4.5-10.7-8.7c-2.1-3.9-2.7-8.6-1.2-13.6c1.5-5.1,4.9-9.3,9-11.9
			C158.8,182.8,163.7,181.8,168.3,183.2L168.3,183.2L168.3,183.2z M176,193.6c-1.8-3.7-4.8-6.6-8.5-7.7l0,0c-3.7-1.1-7.8-0.3-11.3,2
			c-3.5,2.2-6.5,5.9-7.8,10.3c-1.3,4.2-0.7,8.2,1,11.5c1.9,3.5,5.1,6.1,9,7.3c3.9,1.1,8,0.6,11.4-1.3c3.3-1.9,6-5,7.2-9.3v0
			C178.4,201.9,177.8,197.3,176,193.6z"/>
	</g>
</g>
<g id="layer3">
	<g>
		<path fill="#020202" d="M242.6,641.1v-0.3c-0.4,0.5-0.8,0.9-1.2,1.1c-0.4,0.3-0.8,0.5-1.3,0.7c-0.5,0.2-1,0.2-1.5,0.2
			c-0.7,0-1.4-0.2-2-0.5c-0.6-0.3-1.2-0.8-1.6-1.3c-0.5-0.6-0.8-1.3-1-2c-0.2-0.8-0.4-1.6-0.4-2.5c0-1.9,0.5-3.4,1.4-4.5
			c0.9-1.1,2.2-1.6,3.7-1.6c0.9,0,1.6,0.2,2.2,0.5c0.6,0.3,1.2,0.8,1.8,1.4v-4.5c0-0.6,0.1-1.1,0.4-1.4c0.3-0.3,0.6-0.5,1.1-0.5
			c0.5,0,0.8,0.1,1.1,0.4c0.2,0.3,0.4,0.7,0.4,1.3v13.5c0,0.6-0.1,1-0.4,1.3c-0.3,0.3-0.6,0.4-1,0.4c-0.4,0-0.8-0.2-1-0.5
			C242.7,642.1,242.6,641.7,242.6,641.1 M236.6,636.6c0,0.8,0.1,1.5,0.4,2.1c0.3,0.6,0.6,1,1.1,1.3c0.4,0.3,0.9,0.4,1.5,0.4
			c0.5,0,1-0.1,1.5-0.4c0.4-0.3,0.8-0.7,1.1-1.3c0.3-0.6,0.4-1.3,0.4-2.2c0-0.8-0.1-1.5-0.4-2.1c-0.3-0.6-0.6-1-1.1-1.3
			c-0.5-0.3-0.9-0.5-1.5-0.5c-0.6,0-1.1,0.2-1.5,0.5c-0.4,0.3-0.8,0.8-1,1.4C236.7,635.1,236.6,635.8,236.6,636.6"/>
		<path fill="#020202" d="M257.1,637.4h-6c0,0.7,0.1,1.3,0.4,1.8c0.3,0.5,0.6,0.9,1.1,1.2c0.5,0.3,1,0.4,1.5,0.4c0.4,0,0.7,0,1-0.1
			c0.3-0.1,0.6-0.2,0.9-0.4c0.3-0.2,0.5-0.4,0.8-0.6c0.2-0.2,0.5-0.5,0.9-0.9c0.2-0.1,0.4-0.2,0.7-0.2c0.3,0,0.6,0.1,0.8,0.3
			c0.2,0.2,0.3,0.4,0.3,0.7c0,0.3-0.1,0.6-0.3,1c-0.2,0.4-0.5,0.7-1,1.1c-0.4,0.3-1,0.6-1.6,0.8c-0.7,0.2-1.4,0.3-2.3,0.3
			c-2,0-3.5-0.6-4.6-1.7c-1.1-1.1-1.6-2.6-1.6-4.6c0-0.9,0.1-1.7,0.4-2.5c0.3-0.8,0.7-1.4,1.2-2c0.5-0.6,1.1-1,1.9-1.3
			c0.8-0.3,1.6-0.4,2.5-0.4c1.2,0,2.2,0.3,3.1,0.8c0.9,0.5,1.5,1.2,1.9,2c0.4,0.8,0.6,1.6,0.6,2.4c0,0.8-0.2,1.3-0.7,1.5
			C258.5,637.3,257.9,637.4,257.1,637.4 M251.1,635.7h5.5c-0.1-1-0.4-1.8-0.8-2.3c-0.5-0.5-1.1-0.8-1.9-0.8c-0.8,0-1.4,0.3-1.9,0.8
			C251.5,633.8,251.2,634.6,251.1,635.7"/>
		<path fill="#020202" d="M272,638.9c0,0.8-0.2,1.6-0.6,2.2c-0.4,0.6-1,1.1-1.8,1.4c-0.8,0.3-1.8,0.5-2.9,0.5c-1.1,0-2-0.2-2.8-0.5
			c-0.8-0.3-1.4-0.8-1.7-1.3c-0.4-0.5-0.6-1-0.6-1.5c0-0.3,0.1-0.6,0.4-0.9c0.2-0.2,0.5-0.4,0.9-0.4c0.3,0,0.6,0.1,0.7,0.2
			c0.2,0.2,0.3,0.4,0.5,0.7c0.3,0.5,0.7,1,1.1,1.2c0.4,0.3,1,0.4,1.8,0.4c0.6,0,1.1-0.1,1.5-0.4c0.4-0.3,0.6-0.6,0.6-0.9
			c0-0.5-0.2-0.9-0.6-1.2c-0.4-0.2-1.1-0.5-2-0.7c-1.1-0.3-1.9-0.5-2.6-0.8c-0.7-0.3-1.2-0.7-1.6-1.1c-0.4-0.5-0.6-1-0.6-1.7
			c0-0.6,0.2-1.2,0.5-1.7c0.4-0.5,0.9-1,1.6-1.3c0.7-0.3,1.6-0.5,2.6-0.5c0.8,0,1.5,0.1,2.1,0.2c0.6,0.2,1.2,0.4,1.6,0.7
			c0.4,0.3,0.7,0.6,1,0.9c0.2,0.3,0.3,0.7,0.3,1c0,0.4-0.1,0.6-0.4,0.9c-0.2,0.2-0.6,0.3-1,0.3c-0.3,0-0.6-0.1-0.8-0.3
			c-0.2-0.2-0.5-0.4-0.8-0.8c-0.2-0.3-0.5-0.5-0.8-0.7c-0.3-0.2-0.7-0.3-1.3-0.3c-0.6,0-1,0.1-1.4,0.4c-0.4,0.2-0.5,0.5-0.5,0.9
			c0,0.3,0.1,0.6,0.4,0.8c0.3,0.2,0.6,0.4,1.1,0.5c0.5,0.1,1.1,0.3,1.9,0.5c0.9,0.2,1.7,0.5,2.3,0.8c0.6,0.3,1.1,0.7,1.4,1.1
			C271.9,637.8,272,638.3,272,638.9"/>
		<path fill="#020202" d="M276.2,629c-0.4,0-0.8-0.1-1.1-0.4c-0.3-0.3-0.5-0.6-0.5-1.1c0-0.4,0.2-0.8,0.5-1.1
			c0.3-0.3,0.7-0.4,1.1-0.4c0.4,0,0.7,0.1,1.1,0.4c0.3,0.3,0.5,0.6,0.5,1.1c0,0.5-0.1,0.8-0.4,1.1C276.9,628.9,276.6,629,276.2,629
			 M277.7,632.2v8.8c0,0.6-0.1,1.1-0.4,1.4c-0.3,0.3-0.7,0.5-1.1,0.5c-0.4,0-0.8-0.2-1.1-0.5c-0.3-0.3-0.4-0.8-0.4-1.4v-8.7
			c0-0.6,0.1-1.1,0.4-1.4c0.3-0.3,0.6-0.5,1.1-0.5c0.4,0,0.8,0.2,1.1,0.5C277.5,631.2,277.7,631.6,277.7,632.2"/>
		<path fill="#020202" d="M292.1,632.7v8.9c0,1-0.1,1.9-0.3,2.6c-0.2,0.7-0.6,1.3-1,1.8c-0.5,0.5-1.1,0.8-1.9,1.1
			c-0.8,0.2-1.7,0.3-2.9,0.3c-1.1,0-2-0.1-2.8-0.4c-0.8-0.3-1.5-0.7-1.9-1.1c-0.4-0.5-0.7-0.9-0.7-1.4c0-0.4,0.1-0.7,0.4-0.9
			c0.3-0.2,0.6-0.4,0.9-0.4c0.4,0,0.8,0.2,1.2,0.6c0.2,0.2,0.3,0.4,0.5,0.6c0.2,0.2,0.4,0.4,0.6,0.5c0.2,0.1,0.5,0.3,0.8,0.3
			c0.3,0.1,0.6,0.1,1,0.1c0.8,0,1.4-0.1,1.8-0.3c0.4-0.2,0.7-0.5,0.9-0.9c0.2-0.4,0.3-0.8,0.3-1.3c0-0.5,0.1-1.2,0.1-2.2
			c-0.5,0.7-1,1.2-1.6,1.5c-0.6,0.3-1.3,0.5-2.2,0.5c-1,0-1.9-0.3-2.7-0.8c-0.8-0.5-1.4-1.3-1.8-2.2c-0.4-0.9-0.6-2-0.6-3.3
			c0-0.9,0.1-1.7,0.4-2.5c0.2-0.7,0.6-1.4,1.1-1.9c0.5-0.5,1-0.9,1.6-1.1c0.6-0.3,1.3-0.4,2-0.4c0.9,0,1.6,0.2,2.3,0.5
			c0.6,0.3,1.2,0.9,1.8,1.6v-0.4c0-0.5,0.1-0.9,0.4-1.2c0.3-0.3,0.6-0.4,1-0.4c0.6,0,1,0.2,1.2,0.6
			C292,631.4,292.1,631.9,292.1,632.7 M283.2,636.5c0,1.2,0.3,2.2,0.8,2.8c0.5,0.6,1.2,1,2.1,1c0.5,0,1-0.1,1.4-0.4
			c0.5-0.3,0.8-0.7,1.1-1.2c0.3-0.5,0.4-1.2,0.4-2c0-1.2-0.3-2.2-0.8-2.9c-0.5-0.7-1.3-1-2.2-1c-0.9,0-1.6,0.3-2.1,1
			C283.5,634.4,283.2,635.3,283.2,636.5"/>
		<path fill="#020202" d="M298,632.1v0.4c0.5-0.7,1.1-1.2,1.8-1.6c0.6-0.3,1.4-0.5,2.2-0.5c0.8,0,1.5,0.2,2.2,0.5
			c0.6,0.4,1.1,0.8,1.4,1.5c0.2,0.4,0.3,0.8,0.4,1.2c0.1,0.4,0.1,1,0.1,1.7v5.7c0,0.6-0.1,1.1-0.4,1.4c-0.3,0.3-0.6,0.5-1.1,0.5
			c-0.5,0-0.8-0.2-1.1-0.5c-0.3-0.3-0.4-0.8-0.4-1.4v-5.1c0-1-0.1-1.8-0.4-2.3c-0.3-0.5-0.8-0.8-1.7-0.8c-0.5,0-1,0.2-1.5,0.5
			c-0.4,0.3-0.8,0.8-1,1.3c-0.2,0.5-0.2,1.3-0.2,2.6v3.8c0,0.6-0.1,1.1-0.4,1.4c-0.3,0.3-0.7,0.5-1.1,0.5c-0.4,0-0.8-0.2-1.1-0.5
			c-0.3-0.3-0.4-0.8-0.4-1.4v-8.8c0-0.6,0.1-1,0.4-1.3c0.3-0.3,0.6-0.4,1-0.4c0.3,0,0.5,0.1,0.7,0.2c0.2,0.1,0.4,0.3,0.5,0.6
			C297.9,631.4,298,631.7,298,632.1"/>
		<path fill="#020202" d="M317.6,637.4h-6c0,0.7,0.1,1.3,0.4,1.8c0.3,0.5,0.6,0.9,1.1,1.2c0.5,0.3,0.9,0.4,1.5,0.4
			c0.4,0,0.7,0,1-0.1c0.3-0.1,0.6-0.2,0.9-0.4c0.3-0.2,0.5-0.4,0.8-0.6c0.2-0.2,0.5-0.5,0.9-0.9c0.2-0.1,0.4-0.2,0.7-0.2
			c0.3,0,0.6,0.1,0.8,0.3c0.2,0.2,0.3,0.4,0.3,0.7c0,0.3-0.1,0.6-0.3,1c-0.2,0.4-0.5,0.7-1,1.1c-0.4,0.3-1,0.6-1.6,0.8
			c-0.7,0.2-1.4,0.3-2.3,0.3c-2,0-3.5-0.6-4.6-1.7c-1.1-1.1-1.6-2.6-1.6-4.6c0-0.9,0.1-1.7,0.4-2.5c0.3-0.8,0.7-1.4,1.2-2
			c0.5-0.6,1.1-1,1.9-1.3c0.8-0.3,1.6-0.4,2.5-0.4c1.2,0,2.2,0.3,3.1,0.8c0.9,0.5,1.5,1.2,1.9,2c0.4,0.8,0.6,1.6,0.6,2.4
			c0,0.8-0.2,1.3-0.7,1.5C319,637.3,318.4,637.4,317.6,637.4 M311.6,635.7h5.5c-0.1-1-0.4-1.8-0.8-2.3c-0.5-0.5-1.1-0.8-1.9-0.8
			c-0.8,0-1.4,0.3-1.9,0.8C312,633.8,311.7,634.6,311.6,635.7"/>
		<path fill="#020202" d="M331,641.1v-0.3c-0.4,0.5-0.8,0.9-1.2,1.1c-0.4,0.3-0.8,0.5-1.3,0.7c-0.5,0.2-1,0.2-1.5,0.2
			c-0.7,0-1.4-0.2-2-0.5c-0.6-0.3-1.2-0.8-1.6-1.3c-0.5-0.6-0.8-1.3-1-2c-0.2-0.8-0.4-1.6-0.4-2.5c0-1.9,0.5-3.4,1.4-4.5
			c0.9-1.1,2.2-1.6,3.7-1.6c0.9,0,1.6,0.2,2.2,0.5c0.6,0.3,1.2,0.8,1.8,1.4v-4.5c0-0.6,0.1-1.1,0.4-1.4c0.3-0.3,0.6-0.5,1.1-0.5
			c0.5,0,0.8,0.1,1.1,0.4c0.2,0.3,0.4,0.7,0.4,1.3v13.5c0,0.6-0.1,1-0.4,1.3c-0.3,0.3-0.6,0.4-1,0.4c-0.4,0-0.8-0.2-1-0.5
			C331.2,642.1,331,641.7,331,641.1 M325,636.6c0,0.8,0.1,1.5,0.4,2.1c0.3,0.6,0.6,1,1.1,1.3c0.4,0.3,0.9,0.4,1.5,0.4
			c0.5,0,1-0.1,1.5-0.4c0.4-0.3,0.8-0.7,1.1-1.3c0.3-0.6,0.4-1.3,0.4-2.2c0-0.8-0.1-1.5-0.4-2.1c-0.3-0.6-0.6-1-1.1-1.3
			c-0.5-0.3-0.9-0.5-1.5-0.5c-0.6,0-1.1,0.2-1.5,0.5c-0.4,0.3-0.8,0.8-1,1.4C325.1,635.1,325,635.8,325,636.6"/>
		<path fill="#020202" d="M345.6,627.6v4.7c0.6-0.6,1.2-1.1,1.8-1.4c0.6-0.3,1.3-0.5,2.2-0.5c1,0,1.9,0.2,2.7,0.7
			c0.8,0.5,1.4,1.2,1.8,2.1c0.4,0.9,0.6,2,0.6,3.3c0,0.9-0.1,1.8-0.4,2.5c-0.2,0.8-0.6,1.4-1,2c-0.4,0.6-1,1-1.6,1.3
			c-0.6,0.3-1.3,0.5-2.1,0.5c-0.5,0-0.9-0.1-1.3-0.2c-0.4-0.1-0.8-0.3-1.1-0.4c-0.3-0.2-0.5-0.4-0.7-0.6c-0.2-0.2-0.5-0.5-0.8-0.9
			v0.3c0,0.6-0.1,1-0.4,1.3c-0.3,0.3-0.6,0.4-1.1,0.4c-0.4,0-0.8-0.1-1-0.4c-0.3-0.3-0.4-0.7-0.4-1.3v-13.4c0-0.6,0.1-1.1,0.4-1.4
			c0.3-0.3,0.6-0.5,1-0.5c0.5,0,0.8,0.2,1.1,0.5C345.4,626.6,345.6,627.1,345.6,627.6 M345.7,636.7c0,1.2,0.3,2.2,0.8,2.8
			c0.6,0.7,1.3,1,2.2,1c0.8,0,1.4-0.3,2-1c0.6-0.7,0.8-1.6,0.8-2.9c0-0.8-0.1-1.5-0.3-2.1c-0.2-0.6-0.6-1-1-1.4
			c-0.4-0.3-0.9-0.5-1.5-0.5c-0.6,0-1.1,0.2-1.6,0.5c-0.5,0.3-0.8,0.8-1.1,1.4C345.8,635.2,345.7,635.9,345.7,636.7"/>
		<path fill="#020202" d="M359.6,643.2l0.3-0.7l-3.8-9.5c-0.2-0.5-0.3-0.9-0.3-1.2c0-0.3,0.1-0.5,0.2-0.7c0.1-0.2,0.3-0.4,0.6-0.5
			c0.2-0.1,0.5-0.2,0.7-0.2c0.4,0,0.8,0.1,1,0.4c0.2,0.3,0.4,0.7,0.6,1.2l2.6,7.5l2.5-7c0.2-0.6,0.4-1,0.5-1.3
			c0.2-0.3,0.3-0.5,0.5-0.7c0.2-0.1,0.4-0.2,0.7-0.2c0.2,0,0.5,0.1,0.7,0.2c0.2,0.1,0.4,0.3,0.5,0.5c0.1,0.2,0.2,0.4,0.2,0.7
			c0,0.1-0.1,0.3-0.1,0.6c-0.1,0.3-0.1,0.5-0.2,0.8l-4,10.4c-0.3,0.9-0.7,1.6-1,2.2c-0.3,0.5-0.8,0.9-1.3,1.2
			c-0.5,0.3-1.3,0.4-2.2,0.4c-0.9,0-1.6-0.1-2-0.3c-0.4-0.2-0.7-0.5-0.7-1.1c0-0.4,0.1-0.6,0.3-0.8c0.2-0.2,0.5-0.3,0.9-0.3
			c0.2,0,0.3,0,0.5,0.1c0.2,0,0.4,0.1,0.5,0.1c0.4,0,0.6-0.1,0.8-0.2c0.2-0.1,0.4-0.3,0.5-0.5C359.2,644.1,359.4,643.7,359.6,643.2"
			/>
		<path fill-rule="evenodd" clip-rule="evenodd" fill="#020202" d="M420,641.1c0,0.7-1.6,2.1-4.2,2.1c-3.4,0-6.2-2.5-6.2-6.4
			c0-3.2,2.2-5.7,5.8-5.7c2.2,0,3.9,1,4.7,2.2c0.2,0.3,0.2,0.5,0.2,0.8c0,0.4-0.3,0.7-0.8,1c-0.5,0.3-1.4,0.6-2.5,0.7
			c-0.3-1.3-0.8-1.8-1.7-1.8c-1.1,0-1.8,1-1.8,2.7c0,2,1.3,3.4,3.4,3.4c0.9,0,1.9-0.3,2.5-0.7C419.8,639.9,420,640.6,420,641.1
			 M421.9,642.2v-10.8c0.8-0.2,1.7-0.3,2.9-0.3c0.7,0,1,0.3,1,0.9v0.8c0.6-1,1.7-1.8,3.1-1.8c1.2,0,2.1,0.5,2.1,1.2
			c0,0.8-0.8,1.7-1.7,2.3c-0.4-0.3-0.9-0.4-1.4-0.4c-1.1,0-1.9,0.8-2.1,2.1v6.7h-3.1C422.1,642.9,421.9,642.7,421.9,642.2
			 M437.3,643.2c-3.5,0-6-2.6-6-6c0-3.7,2.6-6.1,6-6.1c3.2,0,5.1,1.9,5.1,4.5c0,0.7-0.1,1.4-0.5,2c-0.3,0.6-0.8,0.8-1.8,0.8h-4.7
			c0.3,1.4,1.4,2,2.9,2c1,0,2-0.2,2.6-0.6c0.3,0.4,0.5,1.1,0.5,1.5C441.4,642,439.8,643.2,437.3,643.2 M437.5,633.9
			c-1.2,0-2,0.9-2.1,2.2h3.2c0.1-0.2,0.2-0.5,0.2-0.8C438.8,634.4,438.2,633.9,437.5,633.9 M447.8,633.8c-1,0-2.1,0.3-3.1,0.7
			c-0.3-0.5-0.4-1-0.4-1.4c0-0.9,2.1-2.1,4.6-2.1c3.3,0,5,1.6,5,4.8v3.4c0,0.6,0.2,0.8,0.6,0.8h0.6c0.1,0.4,0.2,0.8,0.2,1.3
			c0,0.8-1,1.7-2.4,1.7c-1,0-1.9-0.5-2.5-1.4c-0.6,1-1.7,1.5-3,1.5c-2.4,0-4-1.7-4-3.8c0-2.3,1.8-3.7,4.4-3.7c0.8,0,1.7,0.1,2.1,0.3
			v-0.6C449.9,634.4,449.4,633.8,447.8,633.8 M448.5,640.4c0.6,0,1.2-0.4,1.5-1.2V638c-0.3-0.1-0.8-0.2-1.2-0.2
			c-0.9,0-1.4,0.6-1.4,1.4C447.4,640,447.9,640.4,448.5,640.4 M460.5,634.3H457c-0.5,0-0.8-0.3-0.8-0.9c0-0.8,0.1-1.5,0.2-2.1h7.3
			c0.7,0,1,0.2,1.3,0.7c0.3,0.5,0.5,1.1,0.6,1.6l-4.4,6.2h3.9c0.4,0,0.7,0.3,0.7,0.8v2.3h-7.9c-0.7,0-1-0.2-1.3-0.7
			c-0.3-0.5-0.5-1.1-0.6-1.6L460.5,634.3z M471.3,632v7.2c0,0.6,0.2,0.8,0.6,0.8h0.6c0.1,0.4,0.2,0.8,0.2,1.3c0,0.8-1,1.7-2.4,1.7
			c-1.5,0-3-0.9-3-3.2v-8.4c0.8-0.2,1.7-0.3,2.9-0.3C470.9,631.1,471.3,631.4,471.3,632 M469.4,630.2c-1.1,0-2.1-0.7-2.1-1.9
			c0-1.2,0.9-1.8,2.1-1.8c1.1,0,2.1,0.7,2.1,1.9C471.4,629.5,470.6,630.2,469.4,630.2 M474.1,638.5v-11.3c0.8-0.2,1.7-0.3,2.9-0.3
			c0.7,0,1,0.3,1,0.9v10.7c0,1.1,0.4,1.5,1.2,1.5c0.4,0,0.9-0.1,1.2-0.2c0.3,0.4,0.5,1.1,0.5,1.7c0,0.7-1.2,1.7-3,1.7
			C475.5,643.1,474.1,641.5,474.1,638.5 M481.6,638.5v-11.3c0.8-0.2,1.7-0.3,2.9-0.3c0.7,0,1,0.3,1,0.9v10.7c0,1.1,0.4,1.5,1.2,1.5
			c0.4,0,0.9-0.1,1.2-0.2c0.3,0.4,0.5,1.1,0.5,1.7c0,0.7-1.2,1.7-3,1.7C483.1,643.1,481.6,641.5,481.6,638.5 M493.4,633.8
			c-1,0-2.1,0.3-3,0.7c-0.3-0.5-0.4-1-0.4-1.4c0-0.9,2.1-2.1,4.6-2.1c3.3,0,5,1.6,5,4.8v3.4c0,0.6,0.2,0.8,0.6,0.8h0.6
			c0.1,0.4,0.2,0.8,0.2,1.3c0,0.8-1,1.7-2.4,1.7c-1,0-1.9-0.5-2.5-1.4c-0.6,1-1.7,1.5-3,1.5c-2.4,0-4-1.7-4-3.8
			c0-2.3,1.8-3.7,4.4-3.7c0.8,0,1.7,0.1,2.1,0.3v-0.6C495.5,634.4,494.9,633.8,493.4,633.8 M494.1,640.4c0.6,0,1.2-0.4,1.5-1.2V638
			c-0.3-0.1-0.8-0.2-1.2-0.2c-0.9,0-1.4,0.6-1.4,1.4C493,640,493.5,640.4,494.1,640.4"/>
		<path fill="#020202" d="M390.8,614.5c-9.3,0-16.9,7.6-16.9,16.9c0,9.3,7.6,16.9,16.9,16.9c9.3,0,16.9-7.6,16.9-16.9
			C407.7,622,400.1,614.5,390.8,614.5 M397.9,645.1c-0.5-0.7-1.1-1.5-1.4-1.9c0,0-0.1,0-0.1-0.1c0,0,0,0-0.1,0c0,0,0-0.1-0.1-0.1
			c0,0-0.1-0.1-0.1-0.1c-0.2-0.2-0.4-0.5-0.6-0.8c-0.3-0.4-0.6-0.8-0.8-1.3c-0.1-0.2-0.2-0.4-0.3-0.6c-1.9-0.6-5.3-1.8-6.7-3.1
			c-0.2,0.3-0.4,0.5-0.6,0.8c-0.2,0.2-0.3,0.3-0.7,0.5c-0.3,0.1-0.7,0-1-0.3l0.1,0.1c-0.2-0.2-0.4-0.3-0.7-0.6
			c-0.1-0.2-0.2-0.4-0.3-0.6c0-0.2,0.1-0.5,0.1-0.6l0.6-1.5l0.7-1.5l0.3-0.7c0.1-0.1,0.1-0.2,0.2-0.4c0.1-0.2,0.3-0.4,0.6-0.4
			c0,0,0,0,0,0l0,0c0,0,0,0,0,0c0.2-0.1,0.4-0.1,0.6,0c0.2,0.1,0.3,0.2,0.4,0.2l0.6,0.4l0.3,0.2l0.1,0.1c0.1,0,0.2,0.1,0.2,0.2
			c0.3,0.3,0.4,0.7,0.2,1.1c0,0.1,0,0.1,0,0.1l0,0l0,0.1l-0.1,0.1l0,0c1.5,0.6,8.1,3.2,13.2,0.4c-0.3-0.7-0.6-1.4-1-2
			c-0.2-0.4-0.5-0.7-0.7-1c0,0,0,0,0,0c-0.6-1.1-1.4-1.6-1.4-1.6c-0.1-0.1-0.2-0.2-0.3-0.3c-0.1-0.1-0.1-0.1-0.2-0.2
			c-0.1,0-0.1-0.1-0.2-0.1c0-0.6,0-1.1-0.2-1.6c-0.1-0.5-0.4-0.9-0.6-1.1c-0.1-0.1-0.3-0.2-0.4-0.3c-0.1-0.1-0.2-0.1-0.3-0.1
			c-0.1,0-0.2,0-0.3,0.1c-0.1,0-0.1,0-0.2,0c0,0-0.1,0.1-0.1,0.1c-0.1,0.1-0.2,0.1-0.2,0.2c-0.1,0.1-0.2,0.3-0.3,0.5
			c-0.1,0.1-0.1,0.2-0.1,0.4c0,0,0,0-0.1,0c-0.1,0-0.2-0.1-0.2-0.1c-0.3-0.5-0.6-0.9-1.1-1.1c-0.1-0.1-0.3-0.1-0.4-0.1
			c-0.1,0-0.2,0-0.3,0.1c-0.1,0-0.2,0.1-0.2,0.1c-0.1,0.1-0.2,0.1-0.2,0.2c0,0,0,0,0,0c-0.2,0-0.4-0.1-0.5-0.1
			c-0.2,0-0.5-0.1-0.7-0.1c0-0.1,0-0.2,0-0.4c0-0.1,0-0.2,0-0.3c0-0.1,0-0.2,0-0.3c0-0.1,0-0.2,0-0.2c0-0.1,0-0.2,0.1-0.3
			c0-0.1,0-0.2,0.1-0.3c0.1-0.2,0.1-0.4,0.2-0.6c0-0.1,0.1-0.2,0.1-0.3c0.1-0.2,0.2-0.3,0.3-0.5c0.1-0.1,0.1-0.2,0.2-0.3
			c0,0,0.1-0.1,0.1-0.1c0-0.1,0.1-0.1,0.1-0.2c0.1-0.1,0.2-0.2,0.2-0.2c0.1-0.1,0.1-0.1,0.2-0.2c0.1-0.1,0.2-0.2,0.3-0.2
			c0.1-0.1,0.2-0.1,0.3-0.2c-0.5-0.2-1.1-0.3-1.7-0.3c-0.5,0-1,0-1.6,0.1c-0.3,0.1-0.6,0.2-0.9,0.3c-0.3,0.2-0.7,0.3-1,0.5
			c-0.1,0.1-0.3,0.2-0.4,0.3c-0.1,0.1-0.2,0.2-0.4,0.3c-0.2,0.2-0.4,0.5-0.6,0.7c-0.2,0.2-0.6,1.2-0.7,1.2c-0.1,0.2-0.2,0.4-0.2,0.7
			c-0.1,0.4-0.2,0.9-0.2,1.3c0,0.1,0,0.2,0,0.3c-0.1,0-0.1,0.1-0.2,0.1c-0.3,0.1-0.5,0.2-0.8,0.3c-0.1,0.1-0.2,0.1-0.4,0.2
			c-0.2,0.1-0.4,0.2-0.6,0.4c0,0-0.1,0-0.1,0.1c-0.1-0.1-0.1-0.1-0.2-0.2c0-0.1-0.1-0.1-0.1-0.2c0-0.1-0.1-0.1-0.1-0.2c0,0,0,0,0,0
			c-0.1-0.1-0.1-0.2-0.2-0.4c0-0.1-0.1-0.2-0.1-0.3c-0.1-0.1-0.1-0.3-0.2-0.4c-0.1-0.2-0.1-0.3-0.1-0.5c0-0.1,0-0.1-0.1-0.2
			c0-0.1,0-0.2-0.1-0.3c0-0.2,0-0.4-0.1-0.6c0,0,0-0.1,0-0.1c0-0.1,0-0.2,0-0.3c0-0.2,0-0.5,0.1-0.7c-0.1,0-0.1,0.1-0.2,0.1
			c-0.4,0.2-0.7,0.5-1,0.9c-1.4,1.5-1.8,3.7-1,5.5c0.1,0.2,0.2,0.4,0.3,0.5c-0.1,0.1-0.1,0.2-0.2,0.2c-0.2,0.2-0.3,0.4-0.4,0.6
			c-0.2,0.3-0.5,0.7-0.7,1c-0.1,0.2-0.2,0.4-0.3,0.6c-1-0.7-1.8-1.6-2.1-2.6c0,0.1-0.1,0.1-0.1,0.2c-0.1,0.2-0.1,0.3-0.2,0.5
			c-0.6,1.9-0.2,4.1,1.2,5.5c0,0.7,0,1.3,0,1.9c2.1,4.3,7.2,6.7,9.7,7.7c-7.5-1.1-13.3-7.5-13.3-15.3c0-8.6,7-15.5,15.5-15.5
			c8.6,0,15.5,7,15.5,15.5C406.3,637.3,402.9,642.5,397.9,645.1 M387.5,627.1c4-3.4,4.4-0.7,4.4-0.7
			C389.7,626.4,387.5,627.1,387.5,627.1 M394.6,630.7c0.6,0.1,1.1-0.5,1.4-1l0,0c0-0.1,0.1-0.1,0.2-0.1c0,0,0.1,0,0.1,0.1
			c0.2,0.3,0.4,0.6,0.7,0.9c0.3,0.2,0.6,0.4,1,0.3c-0.4,0.2-0.8,0.1-1.2-0.1c-0.3-0.2-0.5-0.4-0.7-0.7c-0.1,0.2-0.3,0.5-0.5,0.7
			c-0.3,0.3-0.7,0.4-1.1,0.3c-0.4-0.1-0.7-0.3-0.9-0.6c-0.2-0.3-0.3-0.7-0.3-1c0.1,0.3,0.3,0.7,0.5,0.9
			C394,630.5,394.3,630.7,394.6,630.7 M394.2,628.8c0-1.4,1.3-1.4,1.3,0C395.6,630.2,394.2,630.2,394.2,628.8 M397.4,628.8
			c0-1.4,1.3-1.4,1.3,0C398.8,630.2,397.4,630.2,397.4,628.8 M384.4,628.6c-1.2,0.8-2.1,2.1-2.1,2.1
			C382.8,627.8,384.4,628.6,384.4,628.6 M379.9,634c-0.6,1.1-0.9,2.5-0.9,2.5C378.3,634,379.9,634,379.9,634"/>
		<path fill="#020202" d="M403.6,635.9c0-0.1-0.1-0.2-0.2-0.2c-0.1-0.1-0.2-0.1-0.3,0l0-0.1c-1.9,1-3.9,1.4-5.9,1.4
			c-2.4,0-4.7-0.6-6.2-1.1c-0.8-0.2-1.6-0.4-2.4-0.7c-0.3-0.1-0.4-0.4-0.3-0.6l0-0.1l0,0l0.2-0.5l0.1-0.2l0.1-0.1l0,0l0,0
			c0,0,0,0,0,0.1l0-0.2c0,0,0-0.1,0-0.1l-0.5-0.3l-0.6-0.3c-0.3-0.2-0.2-0.1-0.2-0.1l0,0c0,0,0,0,0,0l-0.1,0.3l-0.3,0.7l-0.7,1.5
			l-0.7,1.5c-0.1,0.2-0.1,0.1-0.1,0.2c0,0,0,0.1,0,0.1c0.1,0.1,0.4,0.3,0.6,0.4l0.1,0l0,0c0,0,0.1,0.1,0.1,0.1c0,0,0.2-0.1,0.3-0.2
			c0.3-0.2,0.5-0.5,0.8-0.9l0,0c0.1-0.1,0.3-0.2,0.5-0.1c0.8,0.5,1.8,1,2.7,1.4c0.7,0.3,1.5,0.6,2.3,0.9c1,0.3,2.1,0.7,3.3,0.8
			c0.1,0.2,0.1,0.4,0.2,0.6c0.1,0.4,0.3,0.7,0.4,0.9c0.2,0.3,0.4,0.6,0.6,0.8c0.1,0.1,0.3,0.1,0.4,0.1c0.5-0.1,0.7-0.8,0.9-1.2
			c0.2-0.5,0.3-1,0.4-1.3c0,0,0-0.1,0-0.1h0.1c0.1,0,0.2,0,0.2,0c0.1,0,0.2,0,0.3-0.1h0c0.3-0.1,0.7-0.1,1-0.2
			c0.2,0.2,0.3,0.4,0.4,0.6c1.3,1.6,2,0.2,1.9-1.2c0.6-0.2,1-0.4,1-0.4c0.2-0.1,0.3-0.3,0.2-0.5L403.6,635.9z M398.2,640.5
			c-0.1,0.4-0.3,0.7-0.5,0.9c-0.1,0.1-0.1,0.1-0.2,0c-0.2-0.1-0.4-0.3-0.5-0.7c-0.1-0.3-0.3-0.6-0.4-0.9c-0.1-0.2-0.1-0.3-0.2-0.5
			c0.6,0,1.3-0.1,2-0.2c0,0,0.1,0,0.1,0C398.4,639.6,398.3,640.1,398.2,640.5 M402.2,639.8c-0.3,0.4-0.9-0.4-1-0.5
			c-0.1-0.1-0.2-0.3-0.3-0.4c0.5-0.1,1.1-0.3,1.6-0.4C402.4,639,402.4,639.5,402.2,639.8"/>
	</g>
</g>
</svg>
