<?xml version="1.0" encoding="UTF-8" standalone="no"?>
<svg
   xmlns:dc="http://purl.org/dc/elements/1.1/"
   xmlns:cc="http://creativecommons.org/ns#"
   xmlns:rdf="http://www.w3.org/1999/02/22-rdf-syntax-ns#"
   xmlns:svg="http://www.w3.org/2000/svg"
   xmlns="http://www.w3.org/2000/svg"
   xmlns:sodipodi="http://sodipodi.sourceforge.net/DTD/sodipodi-0.dtd"
   xmlns:inkscape="http://www.inkscape.org/namespaces/inkscape"
   viewBox="0 0 245 240"
   id="svg3352"
   version="1.1"
   inkscape:version="0.91 r13725"
   sodipodi:docname="discord.svg">
  <metadata
     id="metadata3362">
    <rdf:RDF>
      <cc:Work
         rdf:about="">
        <dc:format>image/svg+xml</dc:format>
        <dc:type
           rdf:resource="http://purl.org/dc/dcmitype/StillImage" />
      </cc:Work>
    </rdf:RDF>
  </metadata>
  <defs
     id="defs3360" />
  <sodipodi:namedview
     pagecolor="#ffffff"
     bordercolor="#666666"
     borderopacity="1"
     objecttolerance="10"
     gridtolerance="10"
     guidetolerance="10"
     inkscape:pageopacity="0"
     inkscape:pageshadow="2"
     inkscape:window-width="1920"
     inkscape:window-height="1017"
     id="namedview3358"
     showgrid="false"
     inkscape:zoom="0.98333333"
     inkscape:cx="-27.5"
     inkscape:cy="120"
     inkscape:window-x="1912"
     inkscape:window-y="-8"
     inkscape:window-maximized="1"
     inkscape:current-layer="svg3352" />
  <path
     d="M104.4 103.9c-5.7 0-10.2 5-10.2 11.1s4.6 11.1 10.2 11.1c5.7 0 10.2-5 10.2-11.1.1-6.1-4.5-11.1-10.2-11.1zM140.9 103.9c-5.7 0-10.2 5-10.2 11.1s4.6 11.1 10.2 11.1c5.7 0 10.2-5 10.2-11.1s-4.5-11.1-10.2-11.1z"
     id="path3354" />
  <path
     d="M189.5 20h-134C44.2 20 35 29.2 35 40.6v135.2c0 11.4 9.2 20.6 20.5 20.6h113.4l-5.3-18.5 12.8 11.9 12.1 11.2 21.5 19V40.6c0-11.4-9.2-20.6-20.5-20.6zm-38.6 130.6s-3.6-4.3-6.6-8.1c13.1-3.7 18.1-11.9 18.1-11.9-4.1 2.7-8 4.6-11.5 5.9-5 2.1-9.8 3.5-14.5 4.3-9.6 1.8-18.4 1.3-25.9-.1-5.7-1.1-10.6-2.7-14.7-4.3-2.3-.9-4.8-2-7.3-3.4-.3-.2-.6-.3-.9-.5-.2-.1-.3-.2-.4-.3-1.8-1-2.8-1.7-2.8-1.7s4.8 8 17.5 11.8c-3 3.8-6.7 8.3-6.7 8.3-22.1-.7-30.5-15.2-30.5-15.2 0-32.2 14.4-58.3 14.4-58.3 14.4-10.8 28.1-10.5 28.1-10.5l1 1.2c-18 5.2-26.3 13.1-26.3 13.1s2.2-1.2 5.9-2.9c10.7-4.7 19.2-6 22.7-6.3.6-.1 1.1-.2 1.7-.2 6.1-.8 13-1 20.2-.2 9.5 1.1 19.7 3.9 30.1 9.6 0 0-7.9-7.5-24.9-12.7l1.4-1.6s13.7-.3 28.1 10.5c0 0 14.4 26.1 14.4 58.3 0 0-8.5 14.5-30.6 15.2z"
     id="path3356" />
  <path
     style="fill:#4a4a4a;fill-opacity:0"
     d="m 200.29661,210.78342 c -5.0339,-4.48734 -15.28418,-13.80669 -22.77839,-20.70967 -7.49421,-6.90298 -13.77843,-12.39829 -13.96492,-12.21179 -0.29197,0.29197 2.02754,9.12078 4.1681,15.86508 l 0.67838,2.13737 -58.28888,-0.0223 c -54.181301,-0.0208 -58.576135,-0.15283 -62.365385,-1.87425 -4.694836,-2.13282 -10.285259,-8.06005 -11.417262,-12.10511 -0.427573,-1.52788 -0.777406,-35.04068 -0.777406,-74.47288 0,-68.095097 0.09552,-71.873629 1.902294,-75.254237 2.678096,-5.0109 4.657094,-7.049637 8.989397,-9.260755 3.597646,-1.836165 7.133368,-1.925685 76.057462,-1.925685 68.92409,0 72.45981,0.08952 76.05746,1.925685 4.33231,2.211118 6.3113,4.249855 8.9894,9.260755 1.80073,3.369295 1.91736,7.522741 2.18468,77.796607 0.15532,40.83051 0.15532,82.06116 0,91.62366 l -0.28239,17.38637 -9.15254,-8.15881 z M 98.1567,147.81353 c 4.35565,-5.52436 4.35299,-5.59421 -0.293681,-7.70858 -2.390338,-1.08768 -5.261324,-2.75293 -6.379968,-3.70056 -2.033898,-1.72297 -2.033898,-1.72297 0,-1.00301 17.205629,6.09044 16.657419,5.98986 32.542369,5.96993 13.88214,-0.0174 15.89455,-0.25632 22.37289,-2.6561 12.02406,-4.45408 11.53758,-4.33127 9.15254,-2.31073 -1.11865,0.94767 -4.22207,2.71356 -6.89649,3.92419 l -4.8626,2.20115 3.30056,4.29441 c 3.69072,4.80205 4.73855,5.0196 13.36063,2.77383 7.80136,-2.032 12.62389,-4.61663 17.21654,-9.22723 3.64897,-3.66322 3.81356,-4.12353 3.81356,-10.66527 0,-11.9922 -3.66337,-28.26491 -9.88231,-43.897297 -3.23958,-8.143215 -3.93685,-9.120906 -8.513,-11.936643 -5.84982,-3.599434 -15.01456,-6.832026 -20.75723,-7.321508 -5.99279,-0.510801 -5.23779,1.985907 1.34287,4.44071 2.97586,1.110097 5.18645,2.242572 4.9124,2.516611 -0.27403,0.274038 -4.02097,-0.28548 -8.32653,-1.243375 -9.56331,-2.127635 -31.15722,-1.574265 -40.495621,1.037748 -8.473785,2.370174 -8.175616,1.254438 0.560541,-2.097507 8.75813,-3.360376 8.29242,-3.097114 7.56393,-4.275845 -1.12231,-1.815931 -12.365395,0.837007 -20.580467,4.856204 -8.189783,4.006823 -8.263155,4.07761 -11.319409,10.920764 -6.620082,14.82279 -11.44441,34.914748 -11.451077,47.690488 -0.0032,6.05408 0.120193,6.3402 4.456725,10.33747 5.314623,4.89884 8.928029,6.87421 16.11306,8.80859 8.304396,2.23575 10.113107,1.99619 13.049768,-1.72844 z"
     id="path3364"
     inkscape:connector-curvature="0" />
  <path
     style="fill:#4a4a4a;fill-opacity:0"
     d="m 196.55187,207.33672 c -6.81385,-6.03011 -16.99605,-15.24723 -22.62712,-20.48247 -5.63107,-5.23526 -10.23831,-8.89482 -10.23831,-8.13236 0,0.76246 0.91525,4.58675 2.0339,8.49845 1.11864,3.91169 2.0339,7.45685 2.0339,7.87812 0,0.42127 -26.19916,0.7559 -58.22034,0.74361 -54.428446,-0.0208 -58.485276,-0.14461 -62.288137,-1.89974 -4.923027,-2.27213 -8.021286,-5.49155 -10.120955,-10.51677 -1.370742,-3.28064 -1.571077,-12.99514 -1.551626,-75.24035 0.02106,-67.399434 0.129682,-71.705206 1.905662,-75.541142 2.192072,-4.734652 6.52579,-9.0755 10.595834,-10.61327 1.923929,-0.726911 26.364761,-1.081645 74.524192,-1.081645 57.88695,0 72.29344,0.264093 74.94968,1.373943 4.31789,1.804129 9.49621,7.796688 10.88126,12.592246 0.77018,2.666602 1.01585,31.108003 0.80859,93.607818 l -0.29772,89.77739 -12.38881,-10.96383 z m -97.572665,-60.54011 3.597035,-4.32203 -6.48895,-3.28151 c -3.568925,-1.80483 -6.778342,-3.74974 -7.132038,-4.32203 -0.90715,-1.4678 0.09873,-1.29815 3.849487,0.64926 7.046484,3.65855 15.580541,5.58185 27.264851,6.14461 13.30562,0.64085 22.85092,-0.93334 32.32398,-5.33078 3.01772,-1.40085 5.68501,-2.34877 5.92728,-2.10649 0.53232,0.5323 -7.25532,5.16144 -11.15983,6.63365 -1.53814,0.57996 -2.78981,1.40902 -2.78148,1.84235 0.008,0.43334 1.52161,2.56845 3.36287,4.74471 l 3.34774,3.95682 6.14298,-1.08206 c 8.20256,-1.44486 15.02923,-4.78788 20.5194,-10.04839 l 4.52477,-4.33549 -0.72199,-8.93571 c -0.89169,-11.03593 -2.85548,-20.69892 -6.3624,-31.30664 -4.62993,-14.004583 -7.02243,-18.511208 -11.34647,-21.372724 -8.10268,-5.362096 -23.48136,-9.637014 -25.57842,-7.110209 -0.74204,0.894101 0.8876,1.959796 6.16023,4.028439 3.94305,1.547001 6.99309,2.988816 6.77788,3.204032 -0.21522,0.215216 -4.21937,-0.576736 -8.89812,-1.759892 -7.31521,-1.849861 -10.50915,-2.080949 -22.80148,-1.649733 -10.64258,0.373343 -15.97232,1.043595 -20.861186,2.623441 -3.611585,1.167089 -6.765338,1.923161 -7.00834,1.68016 -0.538624,-0.538624 7.393206,-3.998105 13.058366,-5.695429 2.27279,-0.680945 3.96359,-1.733867 3.75733,-2.339828 -0.92999,-2.732224 -16.098814,0.983001 -24.776275,6.068331 -5.101692,2.98979 -7.68251,7.458404 -12.304278,21.304498 -3.547097,10.626544 -5.957319,22.215444 -6.894463,33.150154 -0.648493,7.5667 -0.598392,7.79908 2.423608,11.24095 3.758537,4.28073 12.131836,8.97265 18.988539,10.64008 8.221746,1.99939 9.17859,1.78648 13.089374,-2.91254 z"
     id="path4166"
     inkscape:connector-curvature="0" />
  <path
     style="fill:#4a4a4a;fill-opacity:1"
     d="m 196.55187,207.33672 c -6.81385,-6.03011 -16.99605,-15.24723 -22.62712,-20.48247 -5.63107,-5.23526 -10.23831,-8.89482 -10.23831,-8.13236 0,0.76246 0.91525,4.58675 2.0339,8.49845 1.11864,3.91169 2.0339,7.45685 2.0339,7.87812 0,0.42127 -26.19916,0.7559 -58.22034,0.74361 -54.428446,-0.0208 -58.485276,-0.14461 -62.288137,-1.89974 -4.923027,-2.27213 -8.021286,-5.49155 -10.120955,-10.51677 -1.370742,-3.28064 -1.571077,-12.99514 -1.551626,-75.24035 0.02106,-67.399434 0.129682,-71.705206 1.905662,-75.541142 2.192072,-4.734652 6.52579,-9.0755 10.595834,-10.61327 1.923929,-0.726911 26.364761,-1.081645 74.524192,-1.081645 57.88695,0 72.29344,0.264093 74.94968,1.373943 4.31789,1.804129 9.49621,7.796688 10.88126,12.592246 0.77018,2.666602 1.01585,31.108003 0.80859,93.607818 l -0.29772,89.77739 -12.38881,-10.96383 z m -97.572665,-60.54011 3.597035,-4.32203 -6.48895,-3.28151 c -3.568925,-1.80483 -6.778342,-3.74974 -7.132038,-4.32203 -0.90715,-1.4678 0.09873,-1.29815 3.849487,0.64926 7.046484,3.65855 15.580541,5.58185 27.264851,6.14461 13.30562,0.64085 22.85092,-0.93334 32.32398,-5.33078 3.01772,-1.40085 5.68501,-2.34877 5.92728,-2.10649 0.53232,0.5323 -7.25532,5.16144 -11.15983,6.63365 -1.53814,0.57996 -2.78981,1.40902 -2.78148,1.84235 0.008,0.43334 1.52161,2.56845 3.36287,4.74471 l 3.34774,3.95682 6.14298,-1.08206 c 8.20256,-1.44486 15.02923,-4.78788 20.5194,-10.04839 l 4.52477,-4.33549 -0.72199,-8.93571 c -0.89169,-11.03593 -2.85548,-20.69892 -6.3624,-31.30664 -4.62993,-14.004583 -7.02243,-18.511208 -11.34647,-21.372724 -8.10268,-5.362096 -23.48136,-9.637014 -25.57842,-7.110209 -0.74204,0.894101 0.8876,1.959796 6.16023,4.028439 3.94305,1.547001 6.99309,2.988816 6.77788,3.204032 -0.21522,0.215216 -4.21937,-0.576736 -8.89812,-1.759892 -7.31521,-1.849861 -10.50915,-2.080949 -22.80148,-1.649733 -10.64258,0.373343 -15.97232,1.043595 -20.861186,2.623441 -3.611585,1.167089 -6.765338,1.923161 -7.00834,1.68016 -0.538624,-0.538624 7.393206,-3.998105 13.058366,-5.695429 2.27279,-0.680945 3.96359,-1.733867 3.75733,-2.339828 -0.92999,-2.732224 -16.098814,0.983001 -24.776275,6.068331 -5.101692,2.98979 -7.68251,7.458404 -12.304278,21.304498 -3.547097,10.626544 -5.957319,22.215444 -6.894463,33.150154 -0.648493,7.5667 -0.598392,7.79908 2.423608,11.24095 3.758537,4.28073 12.131836,8.97265 18.988539,10.64008 8.221746,1.99939 9.17859,1.78648 13.089374,-2.91254 z"
     id="path4168"
     inkscape:connector-curvature="0" />
  <path
     style="fill:#4a4a4a;fill-opacity:1"
     d="m 135.16512,122.89831 c -2.23619,-1.99821 -3.29406,-4.0224 -3.70546,-7.09025 -0.5243,-3.90976 -0.25501,-4.6144 3.01194,-7.88136 3.80864,-3.80863 6.12284,-4.33512 10.4297,-2.37278 7.0935,3.23201 7.30442,15.08655 0.33257,18.69184 -4.10038,2.12039 -6.55559,1.79182 -10.06875,-1.34745 z"
     id="path4170"
     inkscape:connector-curvature="0" />
  <path
     style="fill:#4a4a4a;fill-opacity:1"
     d="m 98.363502,122.72749 c -2.851338,-2.54767 -3.321129,-3.63837 -3.321129,-7.71054 0,-4.07217 0.469791,-5.16287 3.321129,-7.71054 3.736578,-3.33863 6.109978,-3.66443 10.428038,-1.43148 3.55622,1.839 5.06439,4.3759 5.06439,8.51884 0,4.41039 -2.00312,8.18215 -5.23223,9.85199 -4.14649,2.14423 -6.56103,1.78694 -10.260198,-1.51827 z"
     id="path4172"
     inkscape:connector-curvature="0" />
</svg>
