<svg aria-hidden="true" focusable="false" data-icon="soundcloud" role="img" xmlns="http://www.w3.org/2000/svg" viewBox="0 0 152 151"><path fill="currentColor" d="M 22.5 0 C 10.035012 0 0 10.035012 0 22.5 L 0 127.5 C 0 139.96499 10.035012 150 22.5 150 L 127.5 150 C 139.96499 150 150 139.96499 150 127.5 L 150 22.5 C 150 10.035012 139.96499 0 127.5 0 L 22.5 0 z M 88.041016 48.0625 C 100.84738 47.923242 112.48156 57.623482 113.67188 71.191406 L 113.67383 71.189453 C 123.34182 67.967456 133.5957 73.82798 133.5957 84.667969 C 133.5957 92.578961 127.14827 99.023438 119.23828 99.023438 L 79.101562 99.023438 C 78.222563 99.023438 77.636719 98.144624 77.636719 97.265625 L 77.636719 51.5625 C 77.636719 50.683501 77.929564 50.390687 79.101562 49.804688 C 82.06781 48.651189 85.0857 48.094636 88.041016 48.0625 z M 74.707031 51.490234 C 75.439531 51.490234 76.171875 52.001845 76.171875 53.027344 L 77.050781 85.546875 L 76.171875 97.265625 C 76.171875 99.609623 73.242188 99.609623 73.242188 97.265625 L 72.363281 85.546875 L 73.242188 53.027344 C 73.242188 52.001845 73.974532 51.490234 74.707031 51.490234 z M 69.726562 54.125 C 70.459062 54.125 71.191406 54.63661 71.191406 55.662109 L 71.777344 85.546875 L 71.191406 97.265625 C 71.191406 99.609623 68.261719 99.609623 68.261719 97.265625 L 67.675781 85.546875 L 68.261719 55.662109 C 68.261719 54.63661 68.994063 54.125 69.726562 54.125 z M 55.078125 57.568359 C 55.664124 57.568359 56.25 58.00772 56.25 58.886719 L 57.128906 85.546875 L 56.25 97.265625 C 56.25 99.609623 53.90625 99.609623 53.90625 97.265625 L 53.027344 85.546875 L 53.90625 58.886719 C 53.90625 58.00772 54.492126 57.568359 55.078125 57.568359 z M 59.912109 58.154297 C 60.571359 58.154297 61.230469 58.593657 61.230469 59.472656 L 62.109375 85.546875 L 61.230469 97.265625 C 61.230469 99.609623 58.59375 99.609623 58.59375 97.265625 L 58.007812 85.546875 L 58.59375 59.472656 C 58.59375 58.593657 59.25286 58.154297 59.912109 58.154297 z M 50.244141 58.447266 C 50.75689 58.447266 51.269531 58.886626 51.269531 59.765625 L 52.148438 85.546875 L 51.269531 97.265625 C 51.269531 99.609623 48.925781 99.609623 48.925781 97.265625 L 48.339844 85.546875 L 49.21875 59.765625 C 49.21875 58.886626 49.731391 58.447266 50.244141 58.447266 z M 64.892578 59.105469 C 65.551827 59.105469 66.210938 59.619032 66.210938 60.644531 L 66.796875 85.546875 L 66.210938 97.265625 C 66.210938 99.609623 63.28125 99.609623 63.28125 97.265625 L 62.988281 85.546875 L 63.574219 60.644531 C 63.574219 59.619032 64.233329 59.105469 64.892578 59.105469 z M 45.556641 60.498047 C 46.06939 60.498047 46.582031 60.937407 46.582031 61.816406 L 47.460938 85.546875 L 46.582031 97.265625 C 46.582031 99.609623 44.238281 99.609623 44.238281 97.265625 L 43.652344 85.546875 L 44.53125 61.816406 C 44.53125 60.937407 45.043891 60.498047 45.556641 60.498047 z M 40.722656 65.111328 C 41.162156 65.111328 41.601562 65.478438 41.601562 66.210938 L 42.773438 85.546875 L 41.601562 97.265625 C 41.601562 99.609623 39.550781 99.609623 39.550781 97.265625 L 38.964844 85.546875 L 39.84375 66.210938 C 39.84375 65.478438 40.283157 65.111328 40.722656 65.111328 z M 31.347656 71.996094 C 31.640656 71.996094 31.933594 72.21675 31.933594 72.65625 L 33.105469 85.546875 L 31.933594 97.265625 C 31.933594 99.023623 30.46875 99.023623 30.46875 97.265625 L 29.589844 85.546875 L 30.761719 72.65625 C 30.761719 72.21675 31.054657 71.996094 31.347656 71.996094 z M 26.660156 72.289062 C 26.953156 72.289062 27.246094 72.507766 27.246094 72.947266 L 28.417969 85.546875 L 27.246094 97.265625 C 27.246094 98.437624 26.074219 98.437624 26.074219 97.265625 L 24.902344 85.546875 L 26.074219 72.947266 C 26.074219 72.507766 26.367157 72.289062 26.660156 72.289062 z M 36.035156 72.875 C 36.474656 72.875 36.914062 73.093704 36.914062 73.533203 L 37.792969 85.546875 L 36.914062 97.265625 C 36.914062 99.316623 35.15625 99.316623 35.15625 97.265625 L 34.277344 85.546875 L 35.15625 73.533203 C 35.15625 73.093704 35.595657 72.875 36.035156 72.875 z M 22.119141 74.339844 C 22.33889 74.339844 22.558594 74.5605 22.558594 75 L 23.730469 85.546875 L 22.558594 95.800781 C 22.558594 96.67978 21.386719 96.67978 21.386719 95.800781 L 20.214844 85.546875 L 21.679688 75 C 21.679688 74.5605 21.899391 74.339844 22.119141 74.339844 z M 17.724609 78.441406 C 17.944359 78.441406 18.164062 78.662063 18.164062 79.101562 L 19.042969 85.546875 L 18.164062 91.990234 C 18.164063 92.576234 17.285156 92.576234 17.285156 91.990234 L 16.40625 85.546875 L 17.285156 79.101562 C 17.285156 78.662063 17.50486 78.441406 17.724609 78.441406 z "/></svg>