<?xml version="1.0" encoding="utf-8"?>
<!-- Generator: Adobe Illustrator 19.0.0, SVG Export Plug-In . SVG Version: 6.00 Build 0)  -->
<svg version="1.1" id="Layer_1" xmlns="http://www.w3.org/2000/svg" xmlns:xlink="http://www.w3.org/1999/xlink" x="0px" y="0px"
	 viewBox="-183 277 245 240" style="enable-background:new -183 277 245 240;" xml:space="preserve">
<style type="text/css">
	.st0{fill:none;}
	.st1{fill:#4A4A4A;}
</style>
<g>
	<title>background</title>
	<rect id="canvas_background" x="-184" y="276" class="st0" width="582" height="402"/>
</g>
<path class="st1" d="M-93.8,469.9c67.7,0,104.8-56.1,104.8-104.8c0-1.6,0-3.2-0.1-4.8c7.2-5.2,13.4-11.7,18.4-19.1
	c-6.7,3-13.8,4.9-21.1,5.8c7.7-4.6,13.4-11.8,16.2-20.4c-7.2,4.3-15.1,7.3-23.4,8.9c-13.9-14.8-37.3-15.5-52.1-1.6
	c-9.6,9-13.6,22.4-10.7,35.2c-29.6-1.5-57.2-15.5-75.9-38.5c-9.8,16.8-4.8,38.3,11.4,49.1c-5.9-0.2-11.6-1.8-16.7-4.6
	c0,0.2,0,0.3,0,0.5c0,17.5,12.4,32.6,29.5,36.1c-5.4,1.5-11.1,1.7-16.6,0.6c4.8,15,18.6,25.3,34.4,25.6
	c-13,10.2-29.1,15.8-45.7,15.8c-2.9,0-5.9-0.2-8.8-0.5C-133.4,464.2-113.8,469.9-93.8,469.9"/>
</svg>
